<svg width="228" height="69" viewBox="0 0 228 69" fill="none" xmlns="http://www.w3.org/2000/svg">
<rect width="228" height="69" rx="15" fill="white"/>
<path d="M59.9382 51.3724C58.0966 54.1622 56.1442 56.8845 53.1711 56.9295C50.198 56.997 49.244 55.1521 45.8715 55.1521C42.4769 55.1521 41.4341 56.8845 38.6163 56.997C35.7098 57.1095 33.5132 54.0272 31.6495 51.3049C27.8555 45.7478 24.949 35.5109 28.8539 28.6264C30.7842 25.2066 34.2454 23.0468 37.9951 22.9793C40.835 22.9343 43.5418 24.9366 45.2946 24.9366C47.0252 24.9366 50.3089 22.5293 53.748 22.8893C55.1901 22.9568 59.2282 23.4742 61.8241 27.344C61.6244 27.479 57.0095 30.2238 57.0538 35.9159C57.1204 42.7105 62.9334 44.9828 63 45.0053C62.9334 45.1628 62.0681 48.2451 59.9382 51.3724ZM47.2693 15.3748C48.889 13.5074 51.5736 12.09 53.7923 12C54.0808 14.6323 53.038 17.2871 51.4849 19.177C49.9539 21.0894 47.4246 22.5743 44.9396 22.3718C44.6068 19.7845 45.8493 17.0847 47.2693 15.3748Z" fill="black"/>
<path d="M72.4148 20.5H71.3068L74.5114 11.7727H75.6023L78.8068 20.5H77.6989L75.0909 13.1534H75.0227L72.4148 20.5ZM72.8239 17.0909H77.2898V18.0284H72.8239V17.0909ZM84.5618 13.9545L82.1413 20.5H81.1186L78.6982 13.9545H79.7891L81.5959 19.1705H81.6641L83.4709 13.9545H84.5618ZM87.6161 20.6534C87.2013 20.6534 86.8249 20.5753 86.4869 20.419C86.1488 20.2599 85.8803 20.0312 85.6815 19.733C85.4826 19.4318 85.3832 19.0682 85.3832 18.642C85.3832 18.267 85.457 17.9631 85.6048 17.7301C85.7525 17.4943 85.9499 17.3097 86.1971 17.1761C86.4442 17.0426 86.717 16.9432 87.0153 16.8778C87.3164 16.8097 87.619 16.7557 87.9229 16.7159C88.3207 16.6648 88.6431 16.6264 88.8903 16.6009C89.1403 16.5724 89.3221 16.5256 89.4357 16.4602C89.5522 16.3949 89.6104 16.2812 89.6104 16.1193V16.0852C89.6104 15.6648 89.4954 15.3381 89.2653 15.1051C89.038 14.8722 88.6928 14.7557 88.2298 14.7557C87.7496 14.7557 87.3732 14.8608 87.1005 15.071C86.8278 15.2812 86.636 15.5057 86.5252 15.7443L85.5707 15.4034C85.7411 15.0057 85.9684 14.696 86.2525 14.4744C86.5394 14.25 86.8519 14.0937 87.19 14.0057C87.5309 13.9148 87.8661 13.8693 88.1957 13.8693C88.4059 13.8693 88.6474 13.8949 88.9201 13.946C89.1957 13.9943 89.4613 14.0952 89.717 14.2486C89.9755 14.402 90.19 14.6335 90.3604 14.9432C90.5309 15.2528 90.6161 15.6676 90.6161 16.1875V20.5H89.6104V19.6136H89.5593C89.4911 19.7557 89.3775 19.9077 89.2184 20.0696C89.0593 20.2315 88.8477 20.3693 88.5835 20.483C88.3192 20.5966 87.9968 20.6534 87.6161 20.6534ZM87.7695 19.75C88.1673 19.75 88.5025 19.6719 88.7752 19.5156C89.0508 19.3594 89.2582 19.1577 89.3974 18.9105C89.5394 18.6634 89.6104 18.4034 89.6104 18.1307V17.2102C89.5678 17.2614 89.4741 17.3082 89.3292 17.3509C89.1871 17.3906 89.0224 17.4261 88.8349 17.4574C88.6502 17.4858 88.4698 17.5114 88.2937 17.5341C88.1204 17.554 87.9798 17.571 87.8718 17.5852C87.6104 17.6193 87.3661 17.6747 87.1388 17.7514C86.9144 17.8253 86.7326 17.9375 86.5934 18.0881C86.457 18.2358 86.3888 18.4375 86.3888 18.6932C86.3888 19.0426 86.5181 19.3068 86.7766 19.4858C87.038 19.6619 87.369 19.75 87.7695 19.75ZM92.4517 20.5V13.9545H93.4574V20.5H92.4517ZM92.9631 12.8636C92.767 12.8636 92.598 12.7969 92.456 12.6634C92.3168 12.5298 92.2472 12.3693 92.2472 12.1818C92.2472 11.9943 92.3168 11.8338 92.456 11.7003C92.598 11.5668 92.767 11.5 92.9631 11.5C93.1591 11.5 93.3267 11.5668 93.4659 11.7003C93.608 11.8338 93.679 11.9943 93.679 12.1818C93.679 12.3693 93.608 12.5298 93.4659 12.6634C93.3267 12.7969 93.1591 12.8636 92.9631 12.8636ZM96.305 11.7727V20.5H95.2994V11.7727H96.305ZM100.073 20.6534C99.6584 20.6534 99.282 20.5753 98.9439 20.419C98.6058 20.2599 98.3374 20.0312 98.1385 19.733C97.9396 19.4318 97.8402 19.0682 97.8402 18.642C97.8402 18.267 97.9141 17.9631 98.0618 17.7301C98.2095 17.4943 98.407 17.3097 98.6541 17.1761C98.9013 17.0426 99.174 16.9432 99.4723 16.8778C99.7734 16.8097 100.076 16.7557 100.38 16.7159C100.778 16.6648 101.1 16.6264 101.347 16.6009C101.597 16.5724 101.779 16.5256 101.893 16.4602C102.009 16.3949 102.067 16.2812 102.067 16.1193V16.0852C102.067 15.6648 101.952 15.3381 101.722 15.1051C101.495 14.8722 101.15 14.7557 100.687 14.7557C100.207 14.7557 99.8303 14.8608 99.5575 15.071C99.2848 15.2812 99.093 15.5057 98.9822 15.7443L98.0277 15.4034C98.1982 15.0057 98.4254 14.696 98.7095 14.4744C98.9964 14.25 99.3089 14.0937 99.647 14.0057C99.9879 13.9148 100.323 13.8693 100.653 13.8693C100.863 13.8693 101.104 13.8949 101.377 13.946C101.653 13.9943 101.918 14.0952 102.174 14.2486C102.433 14.402 102.647 14.6335 102.817 14.9432C102.988 15.2528 103.073 15.6676 103.073 16.1875V20.5H102.067V19.6136H102.016C101.948 19.7557 101.835 19.9077 101.675 20.0696C101.516 20.2315 101.305 20.3693 101.04 20.483C100.776 20.5966 100.454 20.6534 100.073 20.6534ZM100.227 19.75C100.624 19.75 100.96 19.6719 101.232 19.5156C101.508 19.3594 101.715 19.1577 101.854 18.9105C101.996 18.6634 102.067 18.4034 102.067 18.1307V17.2102C102.025 17.2614 101.931 17.3082 101.786 17.3509C101.644 17.3906 101.479 17.4261 101.292 17.4574C101.107 17.4858 100.927 17.5114 100.751 17.5341C100.577 17.554 100.437 17.571 100.329 17.5852C100.067 17.6193 99.8232 17.6747 99.5959 17.7514C99.3714 17.8253 99.1896 17.9375 99.0504 18.0881C98.9141 18.2358 98.8459 18.4375 98.8459 18.6932C98.8459 19.0426 98.9751 19.3068 99.2337 19.4858C99.495 19.6619 99.826 19.75 100.227 19.75ZM105.045 20.5V11.7727H106.051V14.9943H106.136C106.21 14.8807 106.312 14.7358 106.443 14.5597C106.576 14.3807 106.767 14.2216 107.014 14.0824C107.264 13.9403 107.602 13.8693 108.028 13.8693C108.579 13.8693 109.065 14.0071 109.485 14.2827C109.906 14.5582 110.234 14.9489 110.47 15.4545C110.706 15.9602 110.824 16.5568 110.824 17.2443C110.824 17.9375 110.706 18.5384 110.47 19.0469C110.234 19.5526 109.907 19.9446 109.49 20.223C109.072 20.4986 108.591 20.6364 108.045 20.6364C107.625 20.6364 107.288 20.5668 107.035 20.4276C106.782 20.2855 106.588 20.125 106.451 19.946C106.315 19.7642 106.21 19.6136 106.136 19.4943H106.017V20.5H105.045ZM106.034 17.2273C106.034 17.7216 106.106 18.1577 106.251 18.5355C106.396 18.9105 106.608 19.2045 106.886 19.4176C107.164 19.6278 107.505 19.733 107.909 19.733C108.329 19.733 108.68 19.6222 108.961 19.4006C109.245 19.1761 109.458 18.875 109.6 18.4972C109.745 18.1165 109.818 17.6932 109.818 17.2273C109.818 16.767 109.747 16.3523 109.605 15.983C109.466 15.6108 109.254 15.3168 108.97 15.1009C108.689 14.8821 108.335 14.7727 107.909 14.7727C107.5 14.7727 107.156 14.8764 106.877 15.0838C106.599 15.2884 106.389 15.5753 106.247 15.9446C106.105 16.3111 106.034 16.7386 106.034 17.2273ZM113.368 11.7727V20.5H112.362V11.7727H113.368ZM117.954 20.6364C117.323 20.6364 116.779 20.4972 116.322 20.2188C115.867 19.9375 115.516 19.5455 115.269 19.0426C115.025 18.5369 114.903 17.9489 114.903 17.2784C114.903 16.608 115.025 16.017 115.269 15.5057C115.516 14.9915 115.86 14.5909 116.3 14.304C116.744 14.0142 117.261 13.8693 117.852 13.8693C118.192 13.8693 118.529 13.9261 118.862 14.0398C119.194 14.1534 119.496 14.3381 119.769 14.5938C120.042 14.8466 120.259 15.1818 120.421 15.5994C120.583 16.017 120.664 16.5312 120.664 17.142V17.5682H115.619V16.6989H119.641C119.641 16.3295 119.567 16 119.42 15.7102C119.275 15.4205 119.067 15.1918 118.798 15.0241C118.531 14.8565 118.215 14.7727 117.852 14.7727C117.451 14.7727 117.104 14.8722 116.812 15.071C116.522 15.267 116.299 15.5227 116.143 15.8381C115.987 16.1534 115.908 16.4915 115.908 16.8523V17.4318C115.908 17.9261 115.994 18.3452 116.164 18.6889C116.337 19.0298 116.577 19.2898 116.884 19.4688C117.191 19.6449 117.548 19.733 117.954 19.733C118.218 19.733 118.457 19.696 118.67 19.6222C118.886 19.5455 119.072 19.4318 119.228 19.2812C119.384 19.1278 119.505 18.9375 119.59 18.7102L120.562 18.983C120.46 19.3125 120.288 19.6023 120.046 19.8523C119.805 20.0994 119.506 20.2926 119.151 20.4318C118.796 20.5682 118.397 20.6364 117.954 20.6364ZM128.228 20.6364C127.637 20.6364 127.119 20.4957 126.673 20.2145C126.229 19.9332 125.883 19.5398 125.633 19.0341C125.386 18.5284 125.262 17.9375 125.262 17.2614C125.262 16.5795 125.386 15.9844 125.633 15.4759C125.883 14.9673 126.229 14.5724 126.673 14.2912C127.119 14.0099 127.637 13.8693 128.228 13.8693C128.819 13.8693 129.336 14.0099 129.779 14.2912C130.225 14.5724 130.572 14.9673 130.819 15.4759C131.069 15.9844 131.194 16.5795 131.194 17.2614C131.194 17.9375 131.069 18.5284 130.819 19.0341C130.572 19.5398 130.225 19.9332 129.779 20.2145C129.336 20.4957 128.819 20.6364 128.228 20.6364ZM128.228 19.733C128.677 19.733 129.046 19.6179 129.336 19.3878C129.626 19.1577 129.84 18.8551 129.979 18.4801C130.119 18.1051 130.188 17.6989 130.188 17.2614C130.188 16.8239 130.119 16.4162 129.979 16.0384C129.84 15.6605 129.626 15.3551 129.336 15.1222C129.046 14.8892 128.677 14.7727 128.228 14.7727C127.779 14.7727 127.41 14.8892 127.12 15.1222C126.83 15.3551 126.616 15.6605 126.477 16.0384C126.337 16.4162 126.268 16.8239 126.268 17.2614C126.268 17.6989 126.337 18.1051 126.477 18.4801C126.616 18.8551 126.83 19.1577 127.12 19.3878C127.41 19.6179 127.779 19.733 128.228 19.733ZM133.735 16.5625V20.5H132.729V13.9545H133.701V14.9773H133.786C133.939 14.6449 134.172 14.3778 134.485 14.1761C134.797 13.9716 135.201 13.8693 135.695 13.8693C136.138 13.8693 136.526 13.9602 136.858 14.142C137.191 14.321 137.449 14.5938 137.634 14.9602C137.819 15.3239 137.911 15.7841 137.911 16.3409V20.5H136.905V16.4091C136.905 15.8949 136.772 15.4943 136.505 15.2074C136.238 14.9176 135.871 14.7727 135.405 14.7727C135.084 14.7727 134.797 14.8423 134.544 14.9815C134.294 15.1207 134.097 15.3239 133.952 15.5909C133.807 15.858 133.735 16.1818 133.735 16.5625Z" fill="black"/>
<path d="M72.12 51.5C71.9707 51.5 71.84 51.444 71.728 51.332C71.616 51.22 71.56 51.0893 71.56 50.94C71.56 50.8467 71.5693 50.744 71.588 50.632L78.532 32.516C78.6067 32.3293 78.7093 32.18 78.84 32.068C78.9707 31.956 79.1667 31.9 79.428 31.9H81.332C81.5747 31.9 81.7613 31.956 81.892 32.068C82.0413 32.18 82.1533 32.3293 82.228 32.516L89.144 50.632C89.1813 50.744 89.2 50.8467 89.2 50.94C89.2 51.0893 89.144 51.22 89.032 51.332C88.92 51.444 88.7893 51.5 88.64 51.5H87.212C86.988 51.5 86.82 51.444 86.708 51.332C86.6147 51.22 86.5493 51.1173 86.512 51.024L84.972 47.048H75.788L74.248 51.024C74.2293 51.1173 74.164 51.22 74.052 51.332C73.94 51.444 73.772 51.5 73.548 51.5H72.12ZM76.6 44.64H84.16L80.38 34.7L76.6 44.64ZM92.5018 56.82C92.3151 56.82 92.1565 56.7547 92.0258 56.624C91.9138 56.512 91.8578 56.3627 91.8578 56.176V37.584C91.8578 37.3973 91.9138 37.248 92.0258 37.136C92.1565 37.0053 92.3151 36.94 92.5018 36.94H93.7898C93.9765 36.94 94.1258 37.0053 94.2378 37.136C94.3685 37.248 94.4338 37.3973 94.4338 37.584V38.816C94.8818 38.2 95.4791 37.6867 96.2258 37.276C96.9725 36.8653 97.9058 36.66 99.0258 36.66C100.071 36.66 100.958 36.8373 101.686 37.192C102.432 37.5467 103.039 38.032 103.506 38.648C103.991 39.264 104.355 39.964 104.598 40.748C104.84 41.532 104.971 42.372 104.99 43.268C105.008 43.5667 105.018 43.884 105.018 44.22C105.018 44.556 105.008 44.8733 104.99 45.172C104.971 46.0493 104.84 46.8893 104.598 47.692C104.355 48.476 103.991 49.176 103.506 49.792C103.039 50.3893 102.432 50.8747 101.686 51.248C100.958 51.6027 100.071 51.78 99.0258 51.78C97.9431 51.78 97.0285 51.584 96.2818 51.192C95.5538 50.7813 94.9565 50.2773 94.4898 49.68V56.176C94.4898 56.3627 94.4338 56.512 94.3218 56.624C94.2098 56.7547 94.0511 56.82 93.8458 56.82H92.5018ZM98.4378 49.512C99.4085 49.512 100.164 49.3067 100.706 48.896C101.266 48.4667 101.667 47.916 101.91 47.244C102.152 46.5533 102.292 45.816 102.33 45.032C102.348 44.4907 102.348 43.9493 102.33 43.408C102.292 42.624 102.152 41.896 101.91 41.224C101.667 40.5333 101.266 39.9827 100.706 39.572C100.164 39.1427 99.4085 38.928 98.4378 38.928C97.5231 38.928 96.7765 39.1427 96.1978 39.572C95.6378 40.0013 95.2178 40.552 94.9378 41.224C94.6765 41.8773 94.5271 42.5493 94.4898 43.24C94.4711 43.5387 94.4618 43.8933 94.4618 44.304C94.4618 44.7147 94.4711 45.0787 94.4898 45.396C94.5085 46.0493 94.6578 46.6933 94.9378 47.328C95.2365 47.9627 95.6751 48.4853 96.2538 48.896C96.8325 49.3067 97.5605 49.512 98.4378 49.512ZM109.182 56.82C108.995 56.82 108.836 56.7547 108.706 56.624C108.594 56.512 108.538 56.3627 108.538 56.176V37.584C108.538 37.3973 108.594 37.248 108.706 37.136C108.836 37.0053 108.995 36.94 109.182 36.94H110.47C110.656 36.94 110.806 37.0053 110.918 37.136C111.048 37.248 111.114 37.3973 111.114 37.584V38.816C111.562 38.2 112.159 37.6867 112.906 37.276C113.652 36.8653 114.586 36.66 115.706 36.66C116.751 36.66 117.638 36.8373 118.366 37.192C119.112 37.5467 119.719 38.032 120.186 38.648C120.671 39.264 121.035 39.964 121.278 40.748C121.52 41.532 121.651 42.372 121.67 43.268C121.688 43.5667 121.698 43.884 121.698 44.22C121.698 44.556 121.688 44.8733 121.67 45.172C121.651 46.0493 121.52 46.8893 121.278 47.692C121.035 48.476 120.671 49.176 120.186 49.792C119.719 50.3893 119.112 50.8747 118.366 51.248C117.638 51.6027 116.751 51.78 115.706 51.78C114.623 51.78 113.708 51.584 112.962 51.192C112.234 50.7813 111.636 50.2773 111.17 49.68V56.176C111.17 56.3627 111.114 56.512 111.002 56.624C110.89 56.7547 110.731 56.82 110.526 56.82H109.182ZM115.118 49.512C116.088 49.512 116.844 49.3067 117.386 48.896C117.946 48.4667 118.347 47.916 118.59 47.244C118.832 46.5533 118.972 45.816 119.01 45.032C119.028 44.4907 119.028 43.9493 119.01 43.408C118.972 42.624 118.832 41.896 118.59 41.224C118.347 40.5333 117.946 39.9827 117.386 39.572C116.844 39.1427 116.088 38.928 115.118 38.928C114.203 38.928 113.456 39.1427 112.878 39.572C112.318 40.0013 111.898 40.552 111.618 41.224C111.356 41.8773 111.207 42.5493 111.17 43.24C111.151 43.5387 111.142 43.8933 111.142 44.304C111.142 44.7147 111.151 45.0787 111.17 45.396C111.188 46.0493 111.338 46.6933 111.618 47.328C111.916 47.9627 112.355 48.4853 112.934 48.896C113.512 49.3067 114.24 49.512 115.118 49.512ZM138.716 51.78C137.092 51.78 135.73 51.5373 134.628 51.052C133.527 50.548 132.678 49.904 132.08 49.12C131.502 48.3173 131.194 47.468 131.156 46.572C131.156 46.4227 131.212 46.292 131.324 46.18C131.455 46.0493 131.604 45.984 131.772 45.984H133.2C133.424 45.984 133.592 46.04 133.704 46.152C133.816 46.264 133.891 46.3947 133.928 46.544C134.022 46.992 134.246 47.44 134.6 47.888C134.974 48.3173 135.487 48.6813 136.14 48.98C136.812 49.26 137.671 49.4 138.716 49.4C140.322 49.4 141.498 49.12 142.244 48.56C143.01 47.9813 143.392 47.216 143.392 46.264C143.392 45.6107 143.187 45.088 142.776 44.696C142.384 44.2853 141.778 43.9213 140.956 43.604C140.135 43.2867 139.071 42.9413 137.764 42.568C136.402 42.176 135.272 41.7467 134.376 41.28C133.48 40.8133 132.808 40.2347 132.36 39.544C131.931 38.8533 131.716 37.976 131.716 36.912C131.716 35.904 131.987 35.008 132.528 34.224C133.07 33.4213 133.844 32.7867 134.852 32.32C135.879 31.8533 137.12 31.62 138.576 31.62C139.734 31.62 140.742 31.7787 141.6 32.096C142.478 32.3947 143.206 32.8053 143.784 33.328C144.363 33.832 144.802 34.3827 145.1 34.98C145.399 35.5587 145.558 36.128 145.576 36.688C145.576 36.8187 145.53 36.9493 145.436 37.08C145.343 37.192 145.194 37.248 144.988 37.248H143.504C143.374 37.248 143.234 37.2107 143.084 37.136C142.954 37.0613 142.851 36.9213 142.776 36.716C142.664 35.9507 142.235 35.3067 141.488 34.784C140.742 34.2613 139.771 34 138.576 34C137.363 34 136.374 34.2333 135.608 34.7C134.862 35.1667 134.488 35.8947 134.488 36.884C134.488 37.5187 134.666 38.0507 135.02 38.48C135.375 38.8907 135.935 39.2547 136.7 39.572C137.466 39.8893 138.464 40.2253 139.696 40.58C141.19 40.9907 142.412 41.4293 143.364 41.896C144.316 42.344 145.016 42.9133 145.464 43.604C145.931 44.276 146.164 45.144 146.164 46.208C146.164 47.384 145.856 48.392 145.24 49.232C144.624 50.0533 143.756 50.688 142.636 51.136C141.535 51.5653 140.228 51.78 138.716 51.78ZM155.154 51.5C154.109 51.5 153.26 51.304 152.606 50.912C151.953 50.5013 151.477 49.932 151.178 49.204C150.88 48.4573 150.73 47.58 150.73 46.572V39.18H148.546C148.36 39.18 148.201 39.124 148.07 39.012C147.958 38.8813 147.902 38.7227 147.902 38.536V37.584C147.902 37.3973 147.958 37.248 148.07 37.136C148.201 37.0053 148.36 36.94 148.546 36.94H150.73V32.264C150.73 32.0773 150.786 31.928 150.898 31.816C151.029 31.6853 151.188 31.62 151.374 31.62H152.69C152.877 31.62 153.026 31.6853 153.138 31.816C153.269 31.928 153.334 32.0773 153.334 32.264V36.94H156.806C156.993 36.94 157.142 37.0053 157.254 37.136C157.385 37.248 157.45 37.3973 157.45 37.584V38.536C157.45 38.7227 157.385 38.8813 157.254 39.012C157.142 39.124 156.993 39.18 156.806 39.18H153.334V46.376C153.334 47.2533 153.484 47.944 153.782 48.448C154.081 48.952 154.613 49.204 155.378 49.204H157.086C157.273 49.204 157.422 49.2693 157.534 49.4C157.665 49.512 157.73 49.6613 157.73 49.848V50.856C157.73 51.0427 157.665 51.2013 157.534 51.332C157.422 51.444 157.273 51.5 157.086 51.5H155.154ZM166.372 51.78C164.953 51.78 163.768 51.5093 162.816 50.968C161.864 50.4267 161.136 49.68 160.632 48.728C160.128 47.7573 159.848 46.656 159.792 45.424C159.773 45.1067 159.764 44.7053 159.764 44.22C159.764 43.716 159.773 43.3147 159.792 43.016C159.848 41.7653 160.128 40.664 160.632 39.712C161.155 38.76 161.892 38.0133 162.844 37.472C163.796 36.9307 164.972 36.66 166.372 36.66C167.772 36.66 168.948 36.9307 169.9 37.472C170.852 38.0133 171.58 38.76 172.084 39.712C172.607 40.664 172.896 41.7653 172.952 43.016C172.971 43.3147 172.98 43.716 172.98 44.22C172.98 44.7053 172.971 45.1067 172.952 45.424C172.896 46.656 172.616 47.7573 172.112 48.728C171.608 49.68 170.88 50.4267 169.928 50.968C168.976 51.5093 167.791 51.78 166.372 51.78ZM166.372 49.624C167.529 49.624 168.453 49.26 169.144 48.532C169.835 47.7853 170.208 46.7027 170.264 45.284C170.283 45.004 170.292 44.6493 170.292 44.22C170.292 43.7907 170.283 43.436 170.264 43.156C170.208 41.7373 169.835 40.664 169.144 39.936C168.453 39.1893 167.529 38.816 166.372 38.816C165.215 38.816 164.281 39.1893 163.572 39.936C162.881 40.664 162.517 41.7373 162.48 43.156C162.461 43.436 162.452 43.7907 162.452 44.22C162.452 44.6493 162.461 45.004 162.48 45.284C162.517 46.7027 162.881 47.7853 163.572 48.532C164.281 49.26 165.215 49.624 166.372 49.624ZM177.13 51.5C176.943 51.5 176.785 51.444 176.654 51.332C176.542 51.2013 176.486 51.0427 176.486 50.856V37.612C176.486 37.4253 176.542 37.2667 176.654 37.136C176.785 37.0053 176.943 36.94 177.13 36.94H178.418C178.605 36.94 178.763 37.0053 178.894 37.136C179.025 37.2667 179.09 37.4253 179.09 37.612V38.844C179.463 38.2093 179.977 37.7333 180.63 37.416C181.283 37.0987 182.067 36.94 182.982 36.94H184.102C184.289 36.94 184.438 37.0053 184.55 37.136C184.662 37.248 184.718 37.3973 184.718 37.584V38.732C184.718 38.9187 184.662 39.068 184.55 39.18C184.438 39.292 184.289 39.348 184.102 39.348H182.422C181.414 39.348 180.621 39.6467 180.042 40.244C179.463 40.8227 179.174 41.616 179.174 42.624V50.856C179.174 51.0427 179.109 51.2013 178.978 51.332C178.847 51.444 178.689 51.5 178.502 51.5H177.13ZM192.645 51.78C190.723 51.78 189.192 51.192 188.053 50.016C186.915 48.8213 186.289 47.1973 186.177 45.144C186.159 44.9013 186.149 44.5933 186.149 44.22C186.149 43.828 186.159 43.5107 186.177 43.268C186.252 41.9427 186.56 40.7853 187.101 39.796C187.643 38.788 188.38 38.0133 189.313 37.472C190.265 36.9307 191.376 36.66 192.645 36.66C194.064 36.66 195.249 36.9587 196.201 37.556C197.172 38.1533 197.909 39.0027 198.413 40.104C198.917 41.2053 199.169 42.4933 199.169 43.968V44.444C199.169 44.6493 199.104 44.808 198.973 44.92C198.861 45.032 198.712 45.088 198.525 45.088H188.837C188.837 45.1067 188.837 45.144 188.837 45.2C188.837 45.256 188.837 45.3027 188.837 45.34C188.875 46.1053 189.043 46.824 189.341 47.496C189.64 48.1493 190.069 48.6813 190.629 49.092C191.189 49.5027 191.861 49.708 192.645 49.708C193.317 49.708 193.877 49.6053 194.325 49.4C194.773 49.1947 195.137 48.9707 195.417 48.728C195.697 48.4667 195.884 48.2707 195.977 48.14C196.145 47.8973 196.276 47.7573 196.369 47.72C196.463 47.664 196.612 47.636 196.817 47.636H198.161C198.348 47.636 198.497 47.692 198.609 47.804C198.74 47.8973 198.796 48.0373 198.777 48.224C198.759 48.504 198.609 48.8493 198.329 49.26C198.049 49.652 197.648 50.044 197.125 50.436C196.603 50.828 195.968 51.1547 195.221 51.416C194.475 51.6587 193.616 51.78 192.645 51.78ZM188.837 43.156H196.509V43.072C196.509 42.232 196.351 41.4853 196.033 40.832C195.735 40.1787 195.296 39.6653 194.717 39.292C194.139 38.9 193.448 38.704 192.645 38.704C191.843 38.704 191.152 38.9 190.573 39.292C190.013 39.6653 189.584 40.1787 189.285 40.832C188.987 41.4853 188.837 42.232 188.837 43.072V43.156Z" fill="black"/>
</svg>
