<svg width="46" height="37" viewBox="0 0 46 37" fill="none" xmlns="http://www.w3.org/2000/svg">
<path d="M35.65 16.1875C29.9295 16.1875 25.3 20.8421 25.3 26.5938C25.3 32.3454 29.9295 37 35.65 37C41.3705 37 46 32.3454 46 26.5938C46 20.8421 41.3705 16.1875 35.65 16.1875ZM40.25 27.0483C40.25 27.4342 39.9359 27.75 39.5521 27.75H35.1986C34.8148 27.75 34.5007 27.4342 34.5007 27.0483V21.5149C34.5007 21.129 34.8148 20.8132 35.1986 20.8132H36.1021C36.4859 20.8132 36.8 21.129 36.8 21.5149V25.4375H39.5521C39.9359 25.4375 40.25 25.7533 40.25 26.1392V27.0483ZM35.65 13.875C36.0381 13.875 36.4205 13.8988 36.8 13.9335V10.4062C36.8 8.55625 35.19 6.9375 33.35 6.9375H27.6V3.46875C27.6 1.61875 25.99 0 24.15 0H12.65C10.81 0 9.2 1.61875 9.2 3.46875V6.9375H3.45C1.61 6.9375 0 8.55625 0 10.4062V16.1875H28.3992C30.4549 14.7357 32.9525 13.875 35.65 13.875ZM23 6.9375H13.8V4.625H23V6.9375ZM23.4902 23.125H14.95C14.3146 23.125 13.8 22.6076 13.8 21.9688V18.5H0V28.9062C0 30.7563 1.61 32.375 3.45 32.375H24.3965C23.5103 30.6377 23 28.6764 23 26.5938C23 25.3898 23.1782 24.2292 23.4902 23.125Z" fill="#CE020F"/>
</svg>
