<svg width="27" height="30" viewBox="0 0 27 30" fill="none" xmlns="http://www.w3.org/2000/svg">
<path fill-rule="evenodd" clip-rule="evenodd" d="M7.5 3H19.5V0H22.5V3H24C24.7956 3 25.5587 3.31607 26.1213 3.87868C26.6839 4.44129 27 5.20435 27 6V27C27 27.7957 26.6839 28.5587 26.1213 29.1213C25.5587 29.6839 24.7956 30 24 30H3C2.20435 30 1.44129 29.6839 0.87868 29.1213C0.31607 28.5587 0 27.7957 0 27V6C0 5.20435 0.31607 4.44129 0.87868 3.87868C1.44129 3.31607 2.20435 3 3 3H4.5V0H7.5V3ZM3 9V27H24V9H3ZM6 13.5H9V16.5H6V13.5ZM12 13.5H15V16.5H12V13.5ZM18 13.5H21V16.5H18V13.5ZM18 19.5H21V22.5H18V19.5ZM12 19.5H15V22.5H12V19.5ZM6 19.5H9V22.5H6V19.5Z" fill="#CE020F"/>
</svg>
