<svg width="211" height="66" viewBox="0 0 211 66" fill="none" xmlns="http://www.w3.org/2000/svg">
<rect width="211" height="66" rx="15" fill="white"/>
<path d="M7 17.2092V48.7892C7.00023 48.8577 7.02224 48.9246 7.06326 48.9816C7.10429 49.0385 7.16251 49.0829 7.23062 49.1093C7.29874 49.1356 7.37371 49.1427 7.44615 49.1297C7.51858 49.1166 7.58525 49.084 7.63779 49.0359L25.3463 33L7.63779 16.9625C7.58525 16.9144 7.51858 16.8818 7.44615 16.8687C7.37371 16.8557 7.29874 16.8628 7.23062 16.8891C7.16251 16.9155 7.10429 16.9599 7.06326 17.0168C7.02224 17.0738 7.00023 17.1407 7 17.2092ZM32.7713 26.4108L10.5671 15.0517L10.5533 15.0444C10.1708 14.8516 9.80732 15.3321 10.1206 15.6117L27.5262 31.0658L32.7713 26.4108ZM10.1223 50.3883C9.80732 50.6679 10.1708 51.1484 10.555 50.9556L10.5689 50.9483L32.7713 39.5892L27.5262 34.9326L10.1223 50.3883ZM41.735 30.9911L35.5345 27.8202L29.7044 33L35.5345 38.1773L41.735 35.0089C43.4217 34.1435 43.4217 31.8565 41.735 30.9911Z" fill="black"/>
<path d="M52.4148 19H51.3068L54.5114 10.2727H55.6023L58.8068 19H57.6989L55.0909 11.6534H55.0227L52.4148 19ZM52.8239 15.5909H57.2898V16.5284H52.8239V15.5909ZM64.5618 12.4545L62.1413 19H61.1186L58.6982 12.4545H59.7891L61.5959 17.6705H61.6641L63.4709 12.4545H64.5618ZM67.6161 19.1534C67.2013 19.1534 66.8249 19.0753 66.4869 18.919C66.1488 18.7599 65.8803 18.5312 65.6815 18.233C65.4826 17.9318 65.3832 17.5682 65.3832 17.142C65.3832 16.767 65.457 16.4631 65.6048 16.2301C65.7525 15.9943 65.9499 15.8097 66.1971 15.6761C66.4442 15.5426 66.717 15.4432 67.0153 15.3778C67.3164 15.3097 67.619 15.2557 67.9229 15.2159C68.3207 15.1648 68.6431 15.1264 68.8903 15.1009C69.1403 15.0724 69.3221 15.0256 69.4357 14.9602C69.5522 14.8949 69.6104 14.7812 69.6104 14.6193V14.5852C69.6104 14.1648 69.4954 13.8381 69.2653 13.6051C69.038 13.3722 68.6928 13.2557 68.2298 13.2557C67.7496 13.2557 67.3732 13.3608 67.1005 13.571C66.8278 13.7812 66.636 14.0057 66.5252 14.2443L65.5707 13.9034C65.7411 13.5057 65.9684 13.196 66.2525 12.9744C66.5394 12.75 66.8519 12.5937 67.19 12.5057C67.5309 12.4148 67.8661 12.3693 68.1957 12.3693C68.4059 12.3693 68.6474 12.3949 68.9201 12.446C69.1957 12.4943 69.4613 12.5952 69.717 12.7486C69.9755 12.902 70.19 13.1335 70.3604 13.4432C70.5309 13.7528 70.6161 14.1676 70.6161 14.6875V19H69.6104V18.1136H69.5593C69.4911 18.2557 69.3775 18.4077 69.2184 18.5696C69.0593 18.7315 68.8477 18.8693 68.5835 18.983C68.3192 19.0966 67.9968 19.1534 67.6161 19.1534ZM67.7695 18.25C68.1673 18.25 68.5025 18.1719 68.7752 18.0156C69.0508 17.8594 69.2582 17.6577 69.3974 17.4105C69.5394 17.1634 69.6104 16.9034 69.6104 16.6307V15.7102C69.5678 15.7614 69.4741 15.8082 69.3292 15.8509C69.1871 15.8906 69.0224 15.9261 68.8349 15.9574C68.6502 15.9858 68.4698 16.0114 68.2937 16.0341C68.1204 16.054 67.9798 16.071 67.8718 16.0852C67.6104 16.1193 67.3661 16.1747 67.1388 16.2514C66.9144 16.3253 66.7326 16.4375 66.5934 16.5881C66.457 16.7358 66.3888 16.9375 66.3888 17.1932C66.3888 17.5426 66.5181 17.8068 66.7766 17.9858C67.038 18.1619 67.369 18.25 67.7695 18.25ZM72.4517 19V12.4545H73.4574V19H72.4517ZM72.9631 11.3636C72.767 11.3636 72.598 11.2969 72.456 11.1634C72.3168 11.0298 72.2472 10.8693 72.2472 10.6818C72.2472 10.4943 72.3168 10.3338 72.456 10.2003C72.598 10.0668 72.767 10 72.9631 10C73.1591 10 73.3267 10.0668 73.4659 10.2003C73.608 10.3338 73.679 10.4943 73.679 10.6818C73.679 10.8693 73.608 11.0298 73.4659 11.1634C73.3267 11.2969 73.1591 11.3636 72.9631 11.3636ZM76.305 10.2727V19H75.2994V10.2727H76.305ZM80.0732 19.1534C79.6584 19.1534 79.282 19.0753 78.9439 18.919C78.6058 18.7599 78.3374 18.5312 78.1385 18.233C77.9396 17.9318 77.8402 17.5682 77.8402 17.142C77.8402 16.767 77.9141 16.4631 78.0618 16.2301C78.2095 15.9943 78.407 15.8097 78.6541 15.6761C78.9013 15.5426 79.174 15.4432 79.4723 15.3778C79.7734 15.3097 80.076 15.2557 80.38 15.2159C80.7777 15.1648 81.1001 15.1264 81.3473 15.1009C81.5973 15.0724 81.7791 15.0256 81.8928 14.9602C82.0092 14.8949 82.0675 14.7812 82.0675 14.6193V14.5852C82.0675 14.1648 81.9524 13.8381 81.7223 13.6051C81.495 13.3722 81.1499 13.2557 80.6868 13.2557C80.2067 13.2557 79.8303 13.3608 79.5575 13.571C79.2848 13.7812 79.093 14.0057 78.9822 14.2443L78.0277 13.9034C78.1982 13.5057 78.4254 13.196 78.7095 12.9744C78.9964 12.75 79.3089 12.5937 79.647 12.5057C79.9879 12.4148 80.3232 12.3693 80.6527 12.3693C80.8629 12.3693 81.1044 12.3949 81.3771 12.446C81.6527 12.4943 81.9183 12.5952 82.174 12.7486C82.4325 12.902 82.647 13.1335 82.8175 13.4432C82.9879 13.7528 83.0732 14.1676 83.0732 14.6875V19H82.0675V18.1136H82.0163C81.9482 18.2557 81.8345 18.4077 81.6754 18.5696C81.5163 18.7315 81.3047 18.8693 81.0405 18.983C80.7763 19.0966 80.4538 19.1534 80.0732 19.1534ZM80.2266 18.25C80.6243 18.25 80.9595 18.1719 81.2322 18.0156C81.5078 17.8594 81.7152 17.6577 81.8544 17.4105C81.9964 17.1634 82.0675 16.9034 82.0675 16.6307V15.7102C82.0249 15.7614 81.9311 15.8082 81.7862 15.8509C81.6442 15.8906 81.4794 15.9261 81.2919 15.9574C81.1072 15.9858 80.9268 16.0114 80.7507 16.0341C80.5774 16.054 80.4368 16.071 80.3288 16.0852C80.0675 16.1193 79.8232 16.1747 79.5959 16.2514C79.3714 16.3253 79.1896 16.4375 79.0504 16.5881C78.9141 16.7358 78.8459 16.9375 78.8459 17.1932C78.8459 17.5426 78.9751 17.8068 79.2337 17.9858C79.495 18.1619 79.826 18.25 80.2266 18.25ZM85.0451 19V10.2727H86.0508V13.4943H86.136C86.2099 13.3807 86.3121 13.2358 86.4428 13.0597C86.5763 12.8807 86.7667 12.7216 87.0138 12.5824C87.2638 12.4403 87.6019 12.3693 88.0281 12.3693C88.5792 12.3693 89.065 12.5071 89.4854 12.7827C89.9059 13.0582 90.234 13.4489 90.4698 13.9545C90.7056 14.4602 90.8235 15.0568 90.8235 15.7443C90.8235 16.4375 90.7056 17.0384 90.4698 17.5469C90.234 18.0526 89.9073 18.4446 89.4897 18.723C89.0721 18.9986 88.5906 19.1364 88.0451 19.1364C87.6246 19.1364 87.288 19.0668 87.0352 18.9276C86.7823 18.7855 86.5877 18.625 86.4513 18.446C86.315 18.2642 86.2099 18.1136 86.136 17.9943H86.0167V19H85.0451ZM86.0337 15.7273C86.0337 16.2216 86.1062 16.6577 86.2511 17.0355C86.396 17.4105 86.6076 17.7045 86.886 17.9176C87.1644 18.1278 87.5053 18.233 87.9087 18.233C88.3292 18.233 88.68 18.1222 88.9613 17.9006C89.2454 17.6761 89.4585 17.375 89.6005 16.9972C89.7454 16.6165 89.8178 16.1932 89.8178 15.7273C89.8178 15.267 89.7468 14.8523 89.6048 14.483C89.4656 14.1108 89.2539 13.8168 88.9698 13.6009C88.6886 13.3821 88.3349 13.2727 87.9087 13.2727C87.4996 13.2727 87.1559 13.3764 86.8775 13.5838C86.5991 13.7884 86.3888 14.0753 86.2468 14.4446C86.1048 14.8111 86.0337 15.2386 86.0337 15.7273ZM93.3675 10.2727V19H92.3619V10.2727H93.3675ZM97.9538 19.1364C97.3232 19.1364 96.7791 18.9972 96.3217 18.7188C95.8672 18.4375 95.5163 18.0455 95.2692 17.5426C95.0249 17.0369 94.9027 16.4489 94.9027 15.7784C94.9027 15.108 95.0249 14.517 95.2692 14.0057C95.5163 13.4915 95.8601 13.0909 96.3004 12.804C96.7436 12.5142 97.2607 12.3693 97.8516 12.3693C98.1925 12.3693 98.5291 12.4261 98.8615 12.5398C99.1939 12.6534 99.4964 12.8381 99.7692 13.0938C100.042 13.3466 100.259 13.6818 100.421 14.0994C100.583 14.517 100.664 15.0312 100.664 15.642V16.0682H95.6186V15.1989H99.6413C99.6413 14.8295 99.5675 14.5 99.4197 14.2102C99.2749 13.9205 99.0675 13.6918 98.7976 13.5241C98.5305 13.3565 98.2152 13.2727 97.8516 13.2727C97.451 13.2727 97.1044 13.3722 96.8118 13.571C96.522 13.767 96.299 14.0227 96.1428 14.3381C95.9865 14.6534 95.9084 14.9915 95.9084 15.3523V15.9318C95.9084 16.4261 95.9936 16.8452 96.1641 17.1889C96.3374 17.5298 96.5774 17.7898 96.8842 17.9688C97.1911 18.1449 97.5476 18.233 97.9538 18.233C98.218 18.233 98.4567 18.196 98.6697 18.1222C98.8857 18.0455 99.0717 17.9318 99.228 17.7812C99.3842 17.6278 99.505 17.4375 99.5902 17.2102L100.562 17.483C100.46 17.8125 100.288 18.1023 100.046 18.3523C99.8047 18.5994 99.5064 18.7926 99.1513 18.9318C98.7962 19.0682 98.397 19.1364 97.9538 19.1364ZM108.228 19.1364C107.637 19.1364 107.119 18.9957 106.673 18.7145C106.229 18.4332 105.883 18.0398 105.633 17.5341C105.386 17.0284 105.262 16.4375 105.262 15.7614C105.262 15.0795 105.386 14.4844 105.633 13.9759C105.883 13.4673 106.229 13.0724 106.673 12.7912C107.119 12.5099 107.637 12.3693 108.228 12.3693C108.819 12.3693 109.336 12.5099 109.779 12.7912C110.225 13.0724 110.572 13.4673 110.819 13.9759C111.069 14.4844 111.194 15.0795 111.194 15.7614C111.194 16.4375 111.069 17.0284 110.819 17.5341C110.572 18.0398 110.225 18.4332 109.779 18.7145C109.336 18.9957 108.819 19.1364 108.228 19.1364ZM108.228 18.233C108.677 18.233 109.046 18.1179 109.336 17.8878C109.626 17.6577 109.84 17.3551 109.979 16.9801C110.119 16.6051 110.188 16.1989 110.188 15.7614C110.188 15.3239 110.119 14.9162 109.979 14.5384C109.84 14.1605 109.626 13.8551 109.336 13.6222C109.046 13.3892 108.677 13.2727 108.228 13.2727C107.779 13.2727 107.41 13.3892 107.12 13.6222C106.83 13.8551 106.616 14.1605 106.477 14.5384C106.337 14.9162 106.268 15.3239 106.268 15.7614C106.268 16.1989 106.337 16.6051 106.477 16.9801C106.616 17.3551 106.83 17.6577 107.12 17.8878C107.41 18.1179 107.779 18.233 108.228 18.233ZM113.735 15.0625V19H112.729V12.4545H113.701V13.4773H113.786C113.939 13.1449 114.172 12.8778 114.485 12.6761C114.797 12.4716 115.201 12.3693 115.695 12.3693C116.138 12.3693 116.526 12.4602 116.858 12.642C117.191 12.821 117.449 13.0938 117.634 13.4602C117.819 13.8239 117.911 14.2841 117.911 14.8409V19H116.905V14.9091C116.905 14.3949 116.772 13.9943 116.505 13.7074C116.238 13.4176 115.871 13.2727 115.405 13.2727C115.084 13.2727 114.797 13.3423 114.544 13.4815C114.294 13.6207 114.097 13.8239 113.952 14.0909C113.807 14.358 113.735 14.6818 113.735 15.0625Z" fill="black"/>
<path d="M60.548 50.28C58.9053 50.28 57.5053 49.972 56.348 49.356C55.2093 48.74 54.332 47.872 53.716 46.752C53.1187 45.632 52.7827 44.316 52.708 42.804C52.6893 41.9827 52.68 41.1147 52.68 40.2C52.68 39.2667 52.6893 38.38 52.708 37.54C52.7827 36.028 53.1187 34.7213 53.716 33.62C54.332 32.5187 55.2187 31.66 56.376 31.044C57.5333 30.428 58.924 30.12 60.548 30.12C61.8733 30.12 63.0213 30.3067 63.992 30.68C64.9627 31.0533 65.756 31.5293 66.372 32.108C67.0067 32.668 67.4733 33.256 67.772 33.872C68.0893 34.488 68.2573 35.0293 68.276 35.496C68.2947 35.664 68.248 35.804 68.136 35.916C68.024 36.0093 67.8747 36.056 67.688 36.056H66.036C65.8493 36.056 65.7093 36.0187 65.616 35.944C65.5413 35.8693 65.4667 35.7387 65.392 35.552C65.224 35.0667 64.944 34.5907 64.552 34.124C64.1787 33.6573 63.6653 33.2747 63.012 32.976C62.3773 32.6587 61.556 32.5 60.548 32.5C59.0733 32.5 57.8787 32.9013 56.964 33.704C56.068 34.5067 55.5827 35.832 55.508 37.68C55.452 39.3413 55.452 41.0027 55.508 42.664C55.5827 44.5307 56.0773 45.8747 56.992 46.696C57.9067 47.4987 59.1013 47.9 60.576 47.9C61.5653 47.9 62.4427 47.7227 63.208 47.368C63.992 46.9947 64.608 46.4253 65.056 45.66C65.504 44.8947 65.728 43.924 65.728 42.748V41.572H61.528C61.3413 41.572 61.1827 41.516 61.052 41.404C60.94 41.2733 60.884 41.1053 60.884 40.9V40.004C60.884 39.7987 60.94 39.64 61.052 39.528C61.1827 39.3973 61.3413 39.332 61.528 39.332H67.856C68.0613 39.332 68.22 39.3973 68.332 39.528C68.444 39.64 68.5 39.7987 68.5 40.004V42.692C68.5 44.2227 68.1827 45.5573 67.548 46.696C66.932 47.8347 66.0267 48.7213 64.832 49.356C63.6373 49.972 62.2093 50.28 60.548 50.28ZM78.0946 50.28C76.6759 50.28 75.4906 50.0093 74.5386 49.468C73.5866 48.9267 72.8586 48.18 72.3546 47.228C71.8506 46.2573 71.5706 45.156 71.5146 43.924C71.4959 43.6067 71.4866 43.2053 71.4866 42.72C71.4866 42.216 71.4959 41.8147 71.5146 41.516C71.5706 40.2653 71.8506 39.164 72.3546 38.212C72.8773 37.26 73.6146 36.5133 74.5666 35.972C75.5186 35.4307 76.6946 35.16 78.0946 35.16C79.4946 35.16 80.6706 35.4307 81.6226 35.972C82.5746 36.5133 83.3026 37.26 83.8066 38.212C84.3293 39.164 84.6186 40.2653 84.6746 41.516C84.6933 41.8147 84.7026 42.216 84.7026 42.72C84.7026 43.2053 84.6933 43.6067 84.6746 43.924C84.6186 45.156 84.3386 46.2573 83.8346 47.228C83.3306 48.18 82.6026 48.9267 81.6506 49.468C80.6986 50.0093 79.5133 50.28 78.0946 50.28ZM78.0946 48.124C79.2519 48.124 80.1759 47.76 80.8666 47.032C81.5573 46.2853 81.9306 45.2027 81.9866 43.784C82.0053 43.504 82.0146 43.1493 82.0146 42.72C82.0146 42.2907 82.0053 41.936 81.9866 41.656C81.9306 40.2373 81.5573 39.164 80.8666 38.436C80.1759 37.6893 79.2519 37.316 78.0946 37.316C76.9373 37.316 76.0039 37.6893 75.2946 38.436C74.6039 39.164 74.2399 40.2373 74.2026 41.656C74.1839 41.936 74.1746 42.2907 74.1746 42.72C74.1746 43.1493 74.1839 43.504 74.2026 43.784C74.2399 45.2027 74.6039 46.2853 75.2946 47.032C76.0039 47.76 76.9373 48.124 78.0946 48.124ZM94.1727 50.28C92.7541 50.28 91.5687 50.0093 90.6167 49.468C89.6647 48.9267 88.9367 48.18 88.4327 47.228C87.9287 46.2573 87.6487 45.156 87.5927 43.924C87.5741 43.6067 87.5647 43.2053 87.5647 42.72C87.5647 42.216 87.5741 41.8147 87.5927 41.516C87.6487 40.2653 87.9287 39.164 88.4327 38.212C88.9554 37.26 89.6927 36.5133 90.6447 35.972C91.5967 35.4307 92.7727 35.16 94.1727 35.16C95.5727 35.16 96.7487 35.4307 97.7007 35.972C98.6527 36.5133 99.3807 37.26 99.8847 38.212C100.407 39.164 100.697 40.2653 100.753 41.516C100.771 41.8147 100.781 42.216 100.781 42.72C100.781 43.2053 100.771 43.6067 100.753 43.924C100.697 45.156 100.417 46.2573 99.9127 47.228C99.4087 48.18 98.6807 48.9267 97.7287 49.468C96.7767 50.0093 95.5914 50.28 94.1727 50.28ZM94.1727 48.124C95.3301 48.124 96.2541 47.76 96.9447 47.032C97.6354 46.2853 98.0087 45.2027 98.0647 43.784C98.0834 43.504 98.0927 43.1493 98.0927 42.72C98.0927 42.2907 98.0834 41.936 98.0647 41.656C98.0087 40.2373 97.6354 39.164 96.9447 38.436C96.2541 37.6893 95.3301 37.316 94.1727 37.316C93.0154 37.316 92.0821 37.6893 91.3727 38.436C90.6821 39.164 90.3181 40.2373 90.2807 41.656C90.2621 41.936 90.2527 42.2907 90.2527 42.72C90.2527 43.1493 90.2621 43.504 90.2807 43.784C90.3181 45.2027 90.6821 46.2853 91.3727 47.032C92.0821 47.76 93.0154 48.124 94.1727 48.124ZM110.251 56.16C108.982 56.16 107.936 55.992 107.115 55.656C106.312 55.32 105.678 54.9093 105.211 54.424C104.763 53.9573 104.436 53.4813 104.231 52.996C104.044 52.5293 103.942 52.156 103.923 51.876C103.904 51.6893 103.96 51.5307 104.091 51.4C104.24 51.2693 104.399 51.204 104.567 51.204H105.911C106.079 51.204 106.219 51.2413 106.331 51.316C106.443 51.3907 106.536 51.5493 106.611 51.792C106.723 52.072 106.891 52.38 107.115 52.716C107.339 53.0707 107.684 53.3693 108.151 53.612C108.618 53.8733 109.271 54.004 110.111 54.004C110.988 54.004 111.726 53.8827 112.323 53.64C112.92 53.416 113.368 53.0053 113.667 52.408C113.984 51.8293 114.143 51.0267 114.143 50V48.096C113.695 48.6747 113.107 49.16 112.379 49.552C111.651 49.9253 110.736 50.112 109.635 50.112C108.59 50.112 107.694 49.9347 106.947 49.58C106.2 49.2067 105.584 48.712 105.099 48.096C104.632 47.4613 104.278 46.7427 104.035 45.94C103.811 45.1373 103.68 44.2973 103.643 43.42C103.624 42.8973 103.624 42.384 103.643 41.88C103.68 41.0027 103.811 40.1627 104.035 39.36C104.278 38.5573 104.632 37.8387 105.099 37.204C105.584 36.5693 106.2 36.0747 106.947 35.72C107.694 35.3467 108.59 35.16 109.635 35.16C110.755 35.16 111.679 35.3747 112.407 35.804C113.154 36.2147 113.76 36.7187 114.227 37.316V36.112C114.227 35.9253 114.283 35.7667 114.395 35.636C114.526 35.5053 114.684 35.44 114.871 35.44H116.159C116.346 35.44 116.504 35.5053 116.635 35.636C116.766 35.7667 116.831 35.9253 116.831 36.112V49.692C116.831 50.9427 116.616 52.0533 116.187 53.024C115.776 53.9947 115.086 54.76 114.115 55.32C113.163 55.88 111.875 56.16 110.251 56.16ZM110.195 47.872C111.128 47.872 111.875 47.6573 112.435 47.228C113.014 46.7987 113.434 46.2573 113.695 45.604C113.975 44.9507 114.124 44.288 114.143 43.616C114.162 43.3547 114.171 43.0373 114.171 42.664C114.171 42.272 114.162 41.9453 114.143 41.684C114.124 41.012 113.975 40.3493 113.695 39.696C113.434 39.0427 113.014 38.5013 112.435 38.072C111.875 37.6427 111.128 37.428 110.195 37.428C109.262 37.428 108.515 37.6427 107.955 38.072C107.395 38.4827 106.994 39.0333 106.751 39.724C106.508 40.396 106.368 41.124 106.331 41.908C106.312 42.3933 106.312 42.888 106.331 43.392C106.368 44.176 106.508 44.9133 106.751 45.604C106.994 46.276 107.395 46.8267 107.955 47.256C108.515 47.6667 109.262 47.872 110.195 47.872ZM121.666 50C121.479 50 121.321 49.944 121.19 49.832C121.078 49.7013 121.022 49.5427 121.022 49.356V30.764C121.022 30.5773 121.078 30.428 121.19 30.316C121.321 30.1853 121.479 30.12 121.666 30.12H122.982C123.187 30.12 123.346 30.1853 123.458 30.316C123.57 30.428 123.626 30.5773 123.626 30.764V49.356C123.626 49.5427 123.57 49.7013 123.458 49.832C123.346 49.944 123.187 50 122.982 50H121.666ZM133.598 50.28C131.676 50.28 130.145 49.692 129.006 48.516C127.868 47.3213 127.242 45.6973 127.13 43.644C127.112 43.4013 127.102 43.0933 127.102 42.72C127.102 42.328 127.112 42.0107 127.13 41.768C127.205 40.4427 127.513 39.2853 128.054 38.296C128.596 37.288 129.333 36.5133 130.266 35.972C131.218 35.4307 132.329 35.16 133.598 35.16C135.017 35.16 136.202 35.4587 137.154 36.056C138.125 36.6533 138.862 37.5027 139.366 38.604C139.87 39.7053 140.122 40.9933 140.122 42.468V42.944C140.122 43.1493 140.057 43.308 139.926 43.42C139.814 43.532 139.665 43.588 139.478 43.588H129.79C129.79 43.6067 129.79 43.644 129.79 43.7C129.79 43.756 129.79 43.8027 129.79 43.84C129.828 44.6053 129.996 45.324 130.294 45.996C130.593 46.6493 131.022 47.1813 131.582 47.592C132.142 48.0027 132.814 48.208 133.598 48.208C134.27 48.208 134.83 48.1053 135.278 47.9C135.726 47.6947 136.09 47.4707 136.37 47.228C136.65 46.9667 136.837 46.7707 136.93 46.64C137.098 46.3973 137.229 46.2573 137.322 46.22C137.416 46.164 137.565 46.136 137.77 46.136H139.114C139.301 46.136 139.45 46.192 139.562 46.304C139.693 46.3973 139.749 46.5373 139.73 46.724C139.712 47.004 139.562 47.3493 139.282 47.76C139.002 48.152 138.601 48.544 138.078 48.936C137.556 49.328 136.921 49.6547 136.174 49.916C135.428 50.1587 134.569 50.28 133.598 50.28ZM129.79 41.656H137.462V41.572C137.462 40.732 137.304 39.9853 136.986 39.332C136.688 38.6787 136.249 38.1653 135.67 37.792C135.092 37.4 134.401 37.204 133.598 37.204C132.796 37.204 132.105 37.4 131.526 37.792C130.966 38.1653 130.537 38.6787 130.238 39.332C129.94 39.9853 129.79 40.732 129.79 41.572V41.656ZM151.342 50C151.136 50 150.978 49.944 150.866 49.832C150.754 49.7013 150.698 49.5427 150.698 49.356V31.072C150.698 30.8667 150.754 30.708 150.866 30.596C150.978 30.4653 151.136 30.4 151.342 30.4H158.454C159.835 30.4 161.03 30.624 162.038 31.072C163.064 31.52 163.858 32.192 164.418 33.088C164.978 33.9653 165.258 35.0667 165.258 36.392C165.258 37.7173 164.978 38.8187 164.418 39.696C163.858 40.5733 163.064 41.236 162.038 41.684C161.03 42.132 159.835 42.356 158.454 42.356H153.498V49.356C153.498 49.5427 153.432 49.7013 153.302 49.832C153.19 49.944 153.031 50 152.826 50H151.342ZM153.47 40.004H158.314C159.695 40.004 160.731 39.696 161.422 39.08C162.112 38.464 162.458 37.568 162.458 36.392C162.458 35.2347 162.122 34.3387 161.45 33.704C160.778 33.0693 159.732 32.752 158.314 32.752H153.47V40.004ZM168.971 50C168.784 50 168.625 49.944 168.495 49.832C168.383 49.7013 168.327 49.5427 168.327 49.356V30.764C168.327 30.5773 168.383 30.428 168.495 30.316C168.625 30.1853 168.784 30.12 168.971 30.12H170.287C170.492 30.12 170.651 30.1853 170.763 30.316C170.875 30.428 170.931 30.5773 170.931 30.764V49.356C170.931 49.5427 170.875 49.7013 170.763 49.832C170.651 49.944 170.492 50 170.287 50H168.971ZM179.167 50.28C178.234 50.28 177.384 50.0933 176.619 49.72C175.854 49.3467 175.238 48.8427 174.771 48.208C174.304 47.5733 174.071 46.8547 174.071 46.052C174.071 44.764 174.594 43.7373 175.639 42.972C176.684 42.2067 178.047 41.7027 179.727 41.46L183.899 40.872V40.06C183.899 39.164 183.638 38.464 183.115 37.96C182.611 37.456 181.78 37.204 180.623 37.204C179.783 37.204 179.102 37.372 178.579 37.708C178.075 38.044 177.72 38.4733 177.515 38.996C177.403 39.276 177.207 39.416 176.927 39.416H175.667C175.462 39.416 175.303 39.36 175.191 39.248C175.098 39.1173 175.051 38.968 175.051 38.8C175.051 38.52 175.154 38.1747 175.359 37.764C175.583 37.3533 175.919 36.952 176.367 36.56C176.815 36.168 177.384 35.8413 178.075 35.58C178.784 35.3 179.643 35.16 180.651 35.16C181.771 35.16 182.714 35.3093 183.479 35.608C184.244 35.888 184.842 36.2707 185.271 36.756C185.719 37.2413 186.036 37.792 186.223 38.408C186.428 39.024 186.531 39.6493 186.531 40.284V49.356C186.531 49.5427 186.466 49.7013 186.335 49.832C186.223 49.944 186.074 50 185.887 50H184.599C184.394 50 184.235 49.944 184.123 49.832C184.011 49.7013 183.955 49.5427 183.955 49.356V48.152C183.712 48.488 183.386 48.824 182.975 49.16C182.564 49.4773 182.051 49.748 181.435 49.972C180.819 50.1773 180.063 50.28 179.167 50.28ZM179.755 48.18C180.52 48.18 181.22 48.0213 181.855 47.704C182.49 47.368 182.984 46.8547 183.339 46.164C183.712 45.4733 183.899 44.6053 183.899 43.56V42.776L180.651 43.252C179.326 43.4387 178.327 43.756 177.655 44.204C176.983 44.6333 176.647 45.184 176.647 45.856C176.647 46.3787 176.796 46.8173 177.095 47.172C177.412 47.508 177.804 47.76 178.271 47.928C178.756 48.096 179.251 48.18 179.755 48.18ZM192.804 55.32C192.654 55.32 192.524 55.264 192.412 55.152C192.3 55.04 192.244 54.9093 192.244 54.76C192.244 54.6853 192.253 54.6107 192.272 54.536C192.29 54.4613 192.328 54.368 192.384 54.256L194.54 49.132L189.192 36.504C189.098 36.28 189.052 36.1213 189.052 36.028C189.052 35.86 189.108 35.72 189.22 35.608C189.332 35.496 189.472 35.44 189.64 35.44H191.012C191.198 35.44 191.348 35.4867 191.46 35.58C191.572 35.6733 191.646 35.7853 191.684 35.916L195.94 46.108L200.308 35.916C200.364 35.7853 200.438 35.6733 200.532 35.58C200.644 35.4867 200.802 35.44 201.008 35.44H202.324C202.492 35.44 202.632 35.496 202.744 35.608C202.856 35.72 202.912 35.8507 202.912 36C202.912 36.0933 202.865 36.2613 202.772 36.504L194.82 54.844C194.764 54.9747 194.68 55.0867 194.568 55.18C194.474 55.2733 194.325 55.32 194.12 55.32H192.804Z" fill="black"/>
</svg>
