<svg width="84" height="86" viewBox="0 0 84 86" fill="none" xmlns="http://www.w3.org/2000/svg">
<path d="M42 0C31.7721 0 23.5 8.451 23.5 18.9C23.5 33.075 42 54 42 54C42 54 60.5 33.075 60.5 18.9C60.5 8.451 52.2279 0 42 0ZM42 25.65C40.2477 25.65 38.5671 24.9388 37.328 23.673C36.089 22.4071 35.3929 20.6902 35.3929 18.9C35.3929 17.1098 36.089 15.3929 37.328 14.127C38.5671 12.8612 40.2477 12.15 42 12.15C43.7523 12.15 45.4329 12.8612 46.672 14.127C47.911 15.3929 48.6071 17.1098 48.6071 18.9C48.6071 20.6902 47.911 22.4071 46.672 23.673C45.4329 24.9388 43.7523 25.65 42 25.65Z" fill="#CE020F"/>
<path d="M0.76 85C0.642667 85 0.552 84.968 0.488 84.904C0.424 84.8293 0.392 84.7387 0.392 84.632V74.168C0.392 74.0613 0.424 73.976 0.488 73.912C0.552 73.8373 0.642667 73.8 0.76 73.8H1.608C1.71467 73.8 1.8 73.8373 1.864 73.912C1.928 73.976 1.96 74.0613 1.96 74.168V83.608H7.288C7.40533 83.608 7.496 83.6453 7.56 83.72C7.624 83.784 7.656 83.8747 7.656 83.992V84.632C7.656 84.7387 7.624 84.8293 7.56 84.904C7.496 84.968 7.40533 85 7.288 85H0.76ZM13.2674 85.16C12.3607 85.16 11.582 85.0053 10.9314 84.696C10.2807 84.376 9.77938 83.8907 9.42738 83.24C9.07538 82.5787 8.87804 81.752 8.83538 80.76C8.82471 80.2907 8.81938 79.8427 8.81938 79.416C8.81938 78.9787 8.82471 78.5253 8.83538 78.056C8.87804 77.0747 9.08071 76.2587 9.44338 75.608C9.81671 74.9467 10.3287 74.456 10.9794 74.136C11.6407 73.8053 12.4034 73.64 13.2674 73.64C14.142 73.64 14.9047 73.8053 15.5554 74.136C16.2167 74.456 16.734 74.9467 17.1074 75.608C17.4807 76.2587 17.6834 77.0747 17.7154 78.056C17.7367 78.5253 17.7474 78.9787 17.7474 79.416C17.7474 79.8427 17.7367 80.2907 17.7154 80.76C17.6834 81.752 17.486 82.5787 17.1234 83.24C16.7714 83.8907 16.27 84.376 15.6194 84.696C14.9687 85.0053 14.1847 85.16 13.2674 85.16ZM13.2674 83.8C14.0887 83.8 14.7554 83.5547 15.2674 83.064C15.79 82.5733 16.0727 81.7787 16.1154 80.68C16.1367 80.2 16.1474 79.7733 16.1474 79.4C16.1474 79.016 16.1367 78.5893 16.1154 78.12C16.094 77.384 15.9554 76.7867 15.6994 76.328C15.454 75.8693 15.1234 75.5333 14.7074 75.32C14.2914 75.1067 13.8114 75 13.2674 75C12.7447 75 12.2754 75.1067 11.8594 75.32C11.4434 75.5333 11.1074 75.8693 10.8514 76.328C10.606 76.7867 10.4674 77.384 10.4354 78.12C10.4247 78.5893 10.4194 79.016 10.4194 79.4C10.4194 79.7733 10.4247 80.2 10.4354 80.68C10.478 81.7787 10.7607 82.5733 11.2834 83.064C11.806 83.5547 12.4674 83.8 13.2674 83.8ZM24.1115 85.16C23.1302 85.16 22.3142 84.9787 21.6635 84.616C21.0235 84.2533 20.5382 83.7467 20.2075 83.096C19.8768 82.4453 19.6955 81.688 19.6635 80.824C19.6528 80.3867 19.6475 79.9173 19.6475 79.416C19.6475 78.9147 19.6528 78.4347 19.6635 77.976C19.6955 77.112 19.8768 76.3547 20.2075 75.704C20.5382 75.0533 21.0235 74.5467 21.6635 74.184C22.3142 73.8213 23.1302 73.64 24.1115 73.64C24.8475 73.64 25.4928 73.7413 26.0475 73.944C26.6022 74.1467 27.0608 74.4187 27.4235 74.76C27.7968 75.1013 28.0795 75.4853 28.2715 75.912C28.4635 76.328 28.5702 76.76 28.5915 77.208C28.6022 77.304 28.5702 77.384 28.4955 77.448C28.4315 77.512 28.3515 77.544 28.2555 77.544H27.3755C27.2795 77.544 27.1942 77.5173 27.1195 77.464C27.0555 77.4107 27.0075 77.3147 26.9755 77.176C26.7942 76.344 26.4528 75.7733 25.9515 75.464C25.4608 75.1547 24.8422 75 24.0955 75C23.2422 75 22.5648 75.2453 22.0635 75.736C21.5622 76.216 21.2902 76.9893 21.2475 78.056C21.2155 78.9307 21.2155 79.8267 21.2475 80.744C21.2902 81.8107 21.5622 82.5893 22.0635 83.08C22.5648 83.56 23.2422 83.8 24.0955 83.8C24.8422 83.8 25.4608 83.6453 25.9515 83.336C26.4528 83.0267 26.7942 82.456 26.9755 81.624C27.0075 81.4853 27.0555 81.3893 27.1195 81.336C27.1942 81.2827 27.2795 81.256 27.3755 81.256H28.2555C28.3515 81.256 28.4315 81.288 28.4955 81.352C28.5702 81.416 28.6022 81.496 28.5915 81.592C28.5702 82.04 28.4635 82.4773 28.2715 82.904C28.0795 83.32 27.7968 83.6987 27.4235 84.04C27.0608 84.3813 26.6022 84.6533 26.0475 84.856C25.4928 85.0587 24.8475 85.16 24.1115 85.16ZM29.8744 85C29.789 85 29.7144 84.968 29.6504 84.904C29.5864 84.84 29.5544 84.7653 29.5544 84.68C29.5544 84.6267 29.5597 84.568 29.5704 84.504L33.5384 74.152C33.581 74.0453 33.6397 73.96 33.7144 73.896C33.789 73.832 33.901 73.8 34.0504 73.8H35.1384C35.277 73.8 35.3837 73.832 35.4584 73.896C35.5437 73.96 35.6077 74.0453 35.6504 74.152L39.6024 84.504C39.6237 84.568 39.6344 84.6267 39.6344 84.68C39.6344 84.7653 39.6024 84.84 39.5384 84.904C39.4744 84.968 39.3997 85 39.3144 85H38.4984C38.3704 85 38.2744 84.968 38.2104 84.904C38.157 84.84 38.1197 84.7813 38.0984 84.728L37.2184 82.456H31.9704L31.0904 84.728C31.0797 84.7813 31.0424 84.84 30.9784 84.904C30.9144 84.968 30.8184 85 30.6904 85H29.8744ZM32.4344 81.08H36.7544L34.5944 75.4L32.4344 81.08ZM42.9736 85C42.867 85 42.7763 84.968 42.7016 84.904C42.6376 84.8293 42.6056 84.7387 42.6056 84.632V75.224H39.5336C39.427 75.224 39.3363 75.192 39.2616 75.128C39.1976 75.0533 39.1656 74.9627 39.1656 74.856V74.184C39.1656 74.0667 39.1976 73.976 39.2616 73.912C39.3363 73.8373 39.427 73.8 39.5336 73.8H47.2456C47.363 73.8 47.4536 73.8373 47.5176 73.912C47.5923 73.976 47.6296 74.0667 47.6296 74.184V74.856C47.6296 74.9627 47.5923 75.0533 47.5176 75.128C47.4536 75.192 47.363 75.224 47.2456 75.224H44.1896V84.632C44.1896 84.7387 44.1523 84.8293 44.0776 84.904C44.0136 84.968 43.923 85 43.8056 85H42.9736ZM49.7913 85C49.6739 85 49.5833 84.968 49.5193 84.904C49.4553 84.8293 49.4233 84.7387 49.4233 84.632V74.168C49.4233 74.0613 49.4553 73.976 49.5193 73.912C49.5833 73.8373 49.6739 73.8 49.7913 73.8H50.6393C50.7459 73.8 50.8313 73.8373 50.8953 73.912C50.9699 73.976 51.0073 74.0613 51.0073 74.168V84.632C51.0073 84.7387 50.9699 84.8293 50.8953 84.904C50.8313 84.968 50.7459 85 50.6393 85H49.7913ZM57.8143 85.16C56.9076 85.16 56.1289 85.0053 55.4783 84.696C54.8276 84.376 54.3263 83.8907 53.9743 83.24C53.6223 82.5787 53.4249 81.752 53.3823 80.76C53.3716 80.2907 53.3663 79.8427 53.3663 79.416C53.3663 78.9787 53.3716 78.5253 53.3823 78.056C53.4249 77.0747 53.6276 76.2587 53.9903 75.608C54.3636 74.9467 54.8756 74.456 55.5263 74.136C56.1876 73.8053 56.9503 73.64 57.8143 73.64C58.6889 73.64 59.4516 73.8053 60.1023 74.136C60.7636 74.456 61.2809 74.9467 61.6543 75.608C62.0276 76.2587 62.2303 77.0747 62.2623 78.056C62.2836 78.5253 62.2943 78.9787 62.2943 79.416C62.2943 79.8427 62.2836 80.2907 62.2623 80.76C62.2303 81.752 62.0329 82.5787 61.6703 83.24C61.3183 83.8907 60.8169 84.376 60.1663 84.696C59.5156 85.0053 58.7316 85.16 57.8143 85.16ZM57.8143 83.8C58.6356 83.8 59.3023 83.5547 59.8143 83.064C60.3369 82.5733 60.6196 81.7787 60.6623 80.68C60.6836 80.2 60.6943 79.7733 60.6943 79.4C60.6943 79.016 60.6836 78.5893 60.6623 78.12C60.6409 77.384 60.5023 76.7867 60.2463 76.328C60.0009 75.8693 59.6703 75.5333 59.2543 75.32C58.8383 75.1067 58.3583 75 57.8143 75C57.2916 75 56.8223 75.1067 56.4062 75.32C55.9903 75.5333 55.6543 75.8693 55.3983 76.328C55.1529 76.7867 55.0143 77.384 54.9823 78.12C54.9716 78.5893 54.9663 79.016 54.9663 79.4C54.9663 79.7733 54.9716 80.2 54.9823 80.68C55.0249 81.7787 55.3076 82.5733 55.8303 83.064C56.3529 83.5547 57.0143 83.8 57.8143 83.8ZM64.9944 85C64.877 85 64.7864 84.968 64.7224 84.904C64.6584 84.8293 64.6264 84.7387 64.6264 84.632V74.184C64.6264 74.0667 64.6584 73.976 64.7224 73.912C64.7864 73.8373 64.877 73.8 64.9944 73.8H65.7304C65.8584 73.8 65.9544 73.832 66.0184 73.896C66.0824 73.9493 66.1197 73.992 66.1304 74.024L71.4424 82.184V74.184C71.4424 74.0667 71.4744 73.976 71.5384 73.912C71.6024 73.8373 71.693 73.8 71.8104 73.8H72.5784C72.6957 73.8 72.7864 73.8373 72.8504 73.912C72.925 73.976 72.9624 74.0667 72.9624 74.184V84.616C72.9624 84.7227 72.925 84.8133 72.8504 84.888C72.7864 84.9627 72.701 85 72.5944 85H71.8264C71.709 85 71.6184 84.968 71.5544 84.904C71.501 84.84 71.4637 84.7973 71.4424 84.776L66.1464 76.696V84.632C66.1464 84.7387 66.109 84.8293 66.0344 84.904C65.9704 84.968 65.8797 85 65.7624 85H64.9944ZM79.3358 85.16C78.4078 85.16 77.6291 85.0213 76.9998 84.744C76.3704 84.456 75.8851 84.088 75.5438 83.64C75.2131 83.1813 75.0371 82.696 75.0158 82.184C75.0158 82.0987 75.0478 82.024 75.1118 81.96C75.1864 81.8853 75.2718 81.848 75.3678 81.848H76.1838C76.3118 81.848 76.4078 81.88 76.4718 81.944C76.5358 82.008 76.5784 82.0827 76.5998 82.168C76.6531 82.424 76.7811 82.68 76.9838 82.936C77.1971 83.1813 77.4904 83.3893 77.8638 83.56C78.2478 83.72 78.7384 83.8 79.3358 83.8C80.2531 83.8 80.9251 83.64 81.3518 83.32C81.7891 82.9893 82.0078 82.552 82.0078 82.008C82.0078 81.6347 81.8904 81.336 81.6558 81.112C81.4318 80.8773 81.0851 80.6693 80.6158 80.488C80.1464 80.3067 79.5384 80.1093 78.7918 79.896C78.0131 79.672 77.3678 79.4267 76.8558 79.16C76.3438 78.8933 75.9598 78.5627 75.7038 78.168C75.4584 77.7733 75.3358 77.272 75.3358 76.664C75.3358 76.088 75.4904 75.576 75.7998 75.128C76.1091 74.6693 76.5518 74.3067 77.1278 74.04C77.7144 73.7733 78.4238 73.64 79.2558 73.64C79.9171 73.64 80.4931 73.7307 80.9838 73.912C81.4851 74.0827 81.9011 74.3173 82.2318 74.616C82.5624 74.904 82.8131 75.2187 82.9838 75.56C83.1544 75.8907 83.2451 76.216 83.2558 76.536C83.2558 76.6107 83.2291 76.6853 83.1758 76.76C83.1224 76.824 83.0371 76.856 82.9198 76.856H82.0718C81.9971 76.856 81.9171 76.8347 81.8318 76.792C81.7571 76.7493 81.6984 76.6693 81.6558 76.552C81.5918 76.1147 81.3464 75.7467 80.9198 75.448C80.4931 75.1493 79.9384 75 79.2558 75C78.5624 75 77.9971 75.1333 77.5598 75.4C77.1331 75.6667 76.9198 76.0827 76.9198 76.648C76.9198 77.0107 77.0211 77.3147 77.2238 77.56C77.4264 77.7947 77.7464 78.0027 78.1838 78.184C78.6211 78.3653 79.1918 78.5573 79.8958 78.76C80.7491 78.9947 81.4478 79.2453 81.9918 79.512C82.5358 79.768 82.9358 80.0933 83.1918 80.488C83.4584 80.872 83.5918 81.368 83.5918 81.976C83.5918 82.648 83.4158 83.224 83.0638 83.704C82.7118 84.1733 82.2158 84.536 81.5758 84.792C80.9464 85.0373 80.1998 85.16 79.3358 85.16Z" fill="black"/>
</svg>
