<svg width="77" height="16" viewBox="0 0 77 16" fill="none" xmlns="http://www.w3.org/2000/svg">
<path d="M7.14253 0.308105L8.74613 5.24347H13.9355L9.73721 8.2937L11.3408 13.2291L7.14253 10.1788L2.94426 13.2291L4.54786 8.2937L0.34958 5.24347H5.53893L7.14253 0.308105Z" fill="#DFCB12"/>
<path d="M22.8212 0.308105L24.4248 5.24347H29.6142L25.4159 8.2937L27.0195 13.2291L22.8212 10.1788L18.623 13.2291L20.2266 8.2937L16.0283 5.24347H21.2176L22.8212 0.308105Z" fill="#DFCB12"/>
<path d="M38.5 0.308105L40.1036 5.24347H45.2929L41.0946 8.2937L42.6982 13.2291L38.5 10.1788L34.3017 13.2291L35.9053 8.2937L31.707 5.24347H36.8964L38.5 0.308105Z" fill="#DFCB12"/>
<path d="M54.1787 0.308105L55.7823 5.24347H60.9716L56.7733 8.2937L58.3769 13.2291L54.1787 10.1788L49.9804 13.2291L51.584 8.2937L47.3857 5.24347H52.5751L54.1787 0.308105Z" fill="#DFCB12"/>
<path d="M69.8574 0.308105L71.461 5.24347H76.6503L72.4521 8.2937L74.0557 13.2291L69.8574 10.1788L65.6591 13.2291L67.2627 8.2937L63.0644 5.24347H68.2538L69.8574 0.308105Z" fill="#D9D9D9"/>
</svg>
