<svg width="77" height="16" viewBox="0 0 77 16" fill="none" xmlns="http://www.w3.org/2000/svg">
<path d="M7.14253 0.307983L8.74613 5.24335H13.9355L9.73721 8.29358L11.3408 13.2289L7.14253 10.1787L2.94426 13.2289L4.54786 8.29358L0.34958 5.24335H5.53893L7.14253 0.307983Z" fill="#DFCB12"/>
<path d="M22.8212 0.307983L24.4248 5.24335H29.6142L25.4159 8.29358L27.0195 13.2289L22.8212 10.1787L18.623 13.2289L20.2266 8.29358L16.0283 5.24335H21.2176L22.8212 0.307983Z" fill="#DFCB12"/>
<path d="M38.5 0.307983L40.1036 5.24335H45.2929L41.0946 8.29358L42.6982 13.2289L38.5 10.1787L34.3017 13.2289L35.9053 8.29358L31.707 5.24335H36.8964L38.5 0.307983Z" fill="#DFCB12"/>
<path d="M54.1787 0.307983L55.7823 5.24335H60.9716L56.7733 8.29358L58.3769 13.2289L54.1787 10.1787L49.9804 13.2289L51.584 8.29358L47.3857 5.24335H52.5751L54.1787 0.307983Z" fill="#DFCB12"/>
<path d="M69.8574 0.307983L71.461 5.24335H76.6503L72.4521 8.29358L74.0557 13.2289L69.8574 10.1787L65.6591 13.2289L67.2627 8.29358L63.0644 5.24335H68.2538L69.8574 0.307983Z" fill="#DFCB12"/>
</svg>
