<svg width="53" height="56" viewBox="0 0 53 56" fill="none" xmlns="http://www.w3.org/2000/svg">
<path d="M49.3157 22.4682V17.0997C49.3148 16.1583 49.0663 15.2337 48.5951 14.4187C48.124 13.6036 47.4468 12.9268 46.6315 12.4561L27.8421 1.71923C27.026 1.24805 26.1002 1 25.1579 1C24.2155 1 23.2898 1.24805 22.4737 1.71923L3.68421 12.4561C2.86891 12.9268 2.19173 13.6036 1.72061 14.4187C1.24948 15.2337 1.00097 16.1583 1 17.0997V38.5734C1.00097 39.5148 1.24948 40.4394 1.72061 41.2545C2.19173 42.0695 2.86891 42.7464 3.68421 43.2171L22.4737 53.9539C23.2898 54.4251 24.2155 54.6732 25.1579 54.6732C26.1002 54.6732 27.026 54.4251 27.8421 53.9539L33.2105 50.8939M37.2368 20.8576L13.2131 7.00712" stroke="white" stroke-width="2" stroke-linecap="round" stroke-linejoin="round"/>
<path d="M1.77881 14.4155L25.1583 27.8366M25.1583 27.8366L48.5377 14.4155M25.1583 27.8366V54.6786" stroke="white" stroke-width="2" stroke-linecap="round" stroke-linejoin="round"/>
<path d="M42.6055 43.942C46.3117 43.942 49.3161 40.9376 49.3161 37.2315C49.3161 33.5254 46.3117 30.521 42.6055 30.521C38.8994 30.521 35.895 33.5254 35.895 37.2315C35.895 40.9376 38.8994 43.942 42.6055 43.942Z" stroke="white" stroke-width="2" stroke-linecap="round" stroke-linejoin="round"/>
<path d="M47.3564 41.9824L52.0001 46.6261" stroke="white" stroke-width="2" stroke-linecap="round" stroke-linejoin="round"/>
</svg>
