<svg width="53" height="86" viewBox="0 0 53 86" fill="none" xmlns="http://www.w3.org/2000/svg">
<path d="M49.3157 22.4682V17.0997C49.3148 16.1583 49.0663 15.2337 48.5951 14.4187C48.124 13.6036 47.4468 12.9268 46.6315 12.4561L27.8421 1.71923C27.026 1.24805 26.1002 1 25.1579 1C24.2155 1 23.2898 1.24805 22.4737 1.71923L3.68421 12.4561C2.86891 12.9268 2.19173 13.6036 1.72061 14.4187C1.24948 15.2337 1.00097 16.1583 1 17.0997V38.5734C1.00097 39.5148 1.24948 40.4394 1.72061 41.2545C2.19173 42.0695 2.86891 42.7464 3.68421 43.2171L22.4737 53.9539C23.2898 54.4251 24.2155 54.6732 25.1579 54.6732C26.1002 54.6732 27.026 54.4251 27.8421 53.9539L33.2105 50.8939M37.2368 20.8576L13.2131 7.00712" stroke="white" stroke-width="2" stroke-linecap="round" stroke-linejoin="round"/>
<path d="M1.77881 14.4155L25.1583 27.8366M25.1583 27.8366L48.5377 14.4155M25.1583 27.8366V54.6786" stroke="white" stroke-width="2" stroke-linecap="round" stroke-linejoin="round"/>
<path d="M42.6055 43.942C46.3117 43.942 49.3161 40.9376 49.3161 37.2315C49.3161 33.5254 46.3117 30.521 42.6055 30.521C38.8994 30.521 35.895 33.5254 35.895 37.2315C35.895 40.9376 38.8994 43.942 42.6055 43.942Z" stroke="white" stroke-width="2" stroke-linecap="round" stroke-linejoin="round"/>
<path d="M47.3564 41.9824L52.0001 46.6261" stroke="white" stroke-width="2" stroke-linecap="round" stroke-linejoin="round"/>
<path d="M5.208 85.6787C5.10133 85.6787 5.01067 85.6467 4.936 85.5827C4.872 85.508 4.84 85.4174 4.84 85.3107V75.9027H1.768C1.66133 75.9027 1.57067 75.8707 1.496 75.8067C1.432 75.732 1.4 75.6414 1.4 75.5347V74.8627C1.4 74.7454 1.432 74.6547 1.496 74.5907C1.57067 74.516 1.66133 74.4787 1.768 74.4787H9.48C9.59733 74.4787 9.688 74.516 9.752 74.5907C9.82667 74.6547 9.864 74.7454 9.864 74.8627V75.5347C9.864 75.6414 9.82667 75.732 9.752 75.8067C9.688 75.8707 9.59733 75.9027 9.48 75.9027H6.424V85.3107C6.424 85.4174 6.38667 85.508 6.312 85.5827C6.248 85.6467 6.15733 85.6787 6.04 85.6787H5.208ZM12.0256 85.6787C11.9083 85.6787 11.8176 85.6467 11.7536 85.5827C11.6896 85.508 11.6576 85.4174 11.6576 85.3107V74.8627C11.6576 74.7454 11.6896 74.6547 11.7536 74.5907C11.8176 74.516 11.9083 74.4787 12.0256 74.4787H15.9296C17.135 74.4787 18.0896 74.7614 18.7936 75.3267C19.4976 75.892 19.8496 76.7294 19.8496 77.8387C19.8496 78.66 19.6416 79.332 19.2256 79.8547C18.8203 80.3667 18.2656 80.724 17.5616 80.9267L20.0256 85.1827C20.0576 85.2467 20.0736 85.3054 20.0736 85.3587C20.0736 85.444 20.0363 85.5187 19.9616 85.5827C19.8976 85.6467 19.823 85.6787 19.7376 85.6787H18.9696C18.7883 85.6787 18.655 85.6307 18.5696 85.5347C18.4843 85.4387 18.4096 85.3427 18.3456 85.2467L16.0256 81.1827H13.2256V85.3107C13.2256 85.4174 13.1883 85.508 13.1136 85.5827C13.0496 85.6467 12.959 85.6787 12.8416 85.6787H12.0256ZM13.2256 79.8227H15.8656C16.6656 79.8227 17.263 79.6574 17.6576 79.3267C18.0523 78.9854 18.2496 78.484 18.2496 77.8227C18.2496 77.172 18.0523 76.676 17.6576 76.3347C17.2736 75.9934 16.6763 75.8227 15.8656 75.8227H13.2256V79.8227ZM21.39 85.6787C21.3047 85.6787 21.23 85.6467 21.166 85.5827C21.102 85.5187 21.07 85.444 21.07 85.3587C21.07 85.3054 21.0753 85.2467 21.086 85.1827L25.054 74.8307C25.0967 74.724 25.1553 74.6387 25.23 74.5747C25.3047 74.5107 25.4167 74.4787 25.566 74.4787H26.654C26.7927 74.4787 26.8993 74.5107 26.974 74.5747C27.0593 74.6387 27.1233 74.724 27.166 74.8307L31.118 85.1827C31.1393 85.2467 31.15 85.3054 31.15 85.3587C31.15 85.444 31.118 85.5187 31.054 85.5827C30.99 85.6467 30.9153 85.6787 30.83 85.6787H30.014C29.886 85.6787 29.79 85.6467 29.726 85.5827C29.6727 85.5187 29.6353 85.46 29.614 85.4067L28.734 83.1347H23.486L22.606 85.4067C22.5953 85.46 22.558 85.5187 22.494 85.5827C22.43 85.6467 22.334 85.6787 22.206 85.6787H21.39ZM23.95 81.7587H28.27L26.11 76.0787L23.95 81.7587ZM36.6896 85.8387C35.7083 85.8387 34.8923 85.6574 34.2416 85.2947C33.6016 84.932 33.1163 84.4254 32.7856 83.7747C32.455 83.124 32.2736 82.3667 32.2416 81.5027C32.231 81.0654 32.2256 80.596 32.2256 80.0947C32.2256 79.5934 32.231 79.1134 32.2416 78.6547C32.2736 77.7907 32.455 77.0334 32.7856 76.3827C33.1163 75.732 33.6016 75.2254 34.2416 74.8627C34.8923 74.5 35.7083 74.3187 36.6896 74.3187C37.4256 74.3187 38.071 74.42 38.6256 74.6227C39.1803 74.8254 39.639 75.0974 40.0016 75.4387C40.375 75.78 40.6576 76.164 40.8496 76.5907C41.0416 77.0067 41.1483 77.4387 41.1696 77.8867C41.1803 77.9827 41.1483 78.0627 41.0736 78.1267C41.0096 78.1907 40.9296 78.2227 40.8336 78.2227H39.9536C39.8576 78.2227 39.7723 78.196 39.6976 78.1427C39.6336 78.0894 39.5856 77.9934 39.5536 77.8547C39.3723 77.0227 39.031 76.452 38.5296 76.1427C38.039 75.8334 37.4203 75.6787 36.6736 75.6787C35.8203 75.6787 35.143 75.924 34.6416 76.4147C34.1403 76.8947 33.8683 77.668 33.8256 78.7347C33.7936 79.6094 33.7936 80.5054 33.8256 81.4227C33.8683 82.4894 34.1403 83.268 34.6416 83.7587C35.143 84.2387 35.8203 84.4787 36.6736 84.4787C37.4203 84.4787 38.039 84.324 38.5296 84.0147C39.031 83.7054 39.3723 83.1347 39.5536 82.3027C39.5856 82.164 39.6336 82.068 39.6976 82.0147C39.7723 81.9614 39.8576 81.9347 39.9536 81.9347H40.8336C40.9296 81.9347 41.0096 81.9667 41.0736 82.0307C41.1483 82.0947 41.1803 82.1747 41.1696 82.2707C41.1483 82.7187 41.0416 83.156 40.8496 83.5827C40.6576 83.9987 40.375 84.3774 40.0016 84.7187C39.639 85.06 39.1803 85.332 38.6256 85.5347C38.071 85.7374 37.4256 85.8387 36.6896 85.8387ZM43.6819 85.6787C43.5645 85.6787 43.4739 85.6467 43.4099 85.5827C43.3459 85.508 43.3139 85.4174 43.3139 85.3107V74.8627C43.3139 74.7454 43.3459 74.6547 43.4099 74.5907C43.4739 74.516 43.5645 74.4787 43.6819 74.4787H44.4819C44.5992 74.4787 44.6899 74.516 44.7539 74.5907C44.8285 74.6547 44.8659 74.7454 44.8659 74.8627V78.8307L49.1379 74.7347C49.1805 74.692 49.2499 74.6387 49.3459 74.5747C49.4525 74.5107 49.5912 74.4787 49.7619 74.4787H50.6259C50.7112 74.4787 50.7859 74.5107 50.8499 74.5747C50.9139 74.6387 50.9459 74.7134 50.9459 74.7987C50.9459 74.884 50.9245 74.9534 50.8819 75.0067L45.9379 79.8387L51.2019 85.1347C51.2552 85.1987 51.2819 85.2734 51.2819 85.3587C51.2819 85.444 51.2499 85.5187 51.1859 85.5827C51.1219 85.6467 51.0472 85.6787 50.9619 85.6787H50.0659C49.8845 85.6787 49.7459 85.6467 49.6499 85.5827C49.5539 85.508 49.4845 85.4547 49.4419 85.4227L44.8659 80.9107V85.3107C44.8659 85.4174 44.8285 85.508 44.7539 85.5827C44.6899 85.6467 44.5992 85.6787 44.4819 85.6787H43.6819Z" fill="white"/>
</svg>
