<svg width="59" height="51" viewBox="0 0 59 51" fill="none" xmlns="http://www.w3.org/2000/svg">
<path d="M38.8622 1.22772C36.4351 1.22772 34.4933 3.14078 34.4933 5.5321C34.4933 7.92343 36.4351 9.83649 38.8622 9.83649C41.2894 9.83649 43.2312 7.92343 43.2312 5.5321C43.2312 3.14078 41.2894 1.22772 38.8622 1.22772ZM30.1243 8.16256C28.9836 8.16256 27.9399 8.61692 27.2117 9.35823L18.2311 18.1822C17.4786 18.9235 17.0175 19.8801 17.0175 21.0757C17.0175 22.5823 17.8185 23.8497 19.0806 24.591L27.2117 29.4454V41.402H31.5807V25.8584L26.1195 21.9127L31.7506 16.2931L35.9496 22.2714H46.1438V17.967H38.3768L33.668 10.1474C32.9642 8.9517 31.5807 8.16256 30.1243 8.16256ZM24.2991 5.5321H7.30869C5.97373 5.5321 4.88149 4.45601 4.88149 3.14078C4.88149 1.82555 5.97373 0.749451 7.30869 0.749451H31.0709C30.5612 1.5625 30.1486 2.44729 29.9302 3.40382C27.8428 3.45165 25.8767 4.21687 24.2991 5.5321ZM12.1631 27.054C5.46402 27.054 0.0270996 32.4106 0.0270996 39.0107C0.0270996 45.6107 5.46402 50.9673 12.1631 50.9673C18.8621 50.9673 24.2991 45.6107 24.2991 39.0107C24.2991 32.4106 18.8621 27.054 12.1631 27.054ZM12.1631 47.3803C7.47859 47.3803 3.66789 43.6259 3.66789 39.0107C3.66789 34.3954 7.47859 30.641 12.1631 30.641C16.8476 30.641 20.6583 34.3954 20.6583 39.0107C20.6583 43.6259 16.8476 47.3803 12.1631 47.3803ZM46.1438 27.054C39.4448 27.054 34.0079 32.4106 34.0079 39.0107C34.0079 45.6107 39.4448 50.9673 46.1438 50.9673C52.8429 50.9673 58.2798 45.6107 58.2798 39.0107C58.2798 32.4106 52.8429 27.054 46.1438 27.054ZM46.1438 47.3803C41.4593 47.3803 37.6486 43.6259 37.6486 39.0107C37.6486 34.3954 41.4593 30.641 46.1438 30.641C50.8283 30.641 54.639 34.3954 54.639 39.0107C54.639 43.6259 50.8283 47.3803 46.1438 47.3803ZM12.9398 24.6627H2.4543C1.11448 24.6627 0.0270996 23.5866 0.0270996 22.2714C0.0270996 20.9562 1.11448 19.8801 2.4543 19.8801H12.2844C12.2359 20.2627 12.1631 20.6692 12.1631 21.0757C12.1631 22.3431 12.4543 23.5627 12.9398 24.6627ZM14.5903 15.0974H4.88149C3.54653 15.0974 2.4543 14.0213 2.4543 12.7061C2.4543 11.3909 3.54653 10.3148 4.88149 10.3148H19.3719L14.8087 14.7865C14.7116 14.8822 14.5903 15.0018 14.5903 15.0974Z" fill="#CE020F"/>
</svg>
