<svg width="69" height="50" viewBox="0 0 69 50" fill="none" xmlns="http://www.w3.org/2000/svg">
<path d="M6.75221 0.753845C5.10555 0.753845 3.52633 1.40197 2.36196 2.55563C1.19759 3.7093 0.543457 5.274 0.543457 6.90553V40.7398H6.75221C6.75221 43.1871 7.73341 45.5342 9.47996 47.2647C11.2265 48.9952 13.5953 49.9674 16.0653 49.9674C18.5353 49.9674 20.9042 48.9952 22.6507 47.2647C24.3973 45.5342 25.3785 43.1871 25.3785 40.7398H44.0047C44.0047 43.1871 44.9859 45.5342 46.7325 47.2647C48.479 48.9952 50.8479 49.9674 53.3179 49.9674C55.7879 49.9674 58.1567 48.9952 59.9032 47.2647C61.6498 45.5342 62.631 43.1871 62.631 40.7398H68.8398V25.3606L59.5266 13.0572H50.2135V0.753845M28.4829 6.90553L40.9004 19.2089L28.4829 31.5123V22.2848H9.85659V16.1331H28.4829M50.2135 17.671H57.9744L64.0901 25.3606H50.2135M16.0653 36.1261C17.3003 36.1261 18.4848 36.6121 19.358 37.4774C20.2313 38.3426 20.7219 39.5162 20.7219 40.7398C20.7219 41.9635 20.2313 43.137 19.358 44.0022C18.4848 44.8675 17.3003 45.3536 16.0653 45.3536C14.8303 45.3536 13.6459 44.8675 12.7727 44.0022C11.8994 43.137 11.4088 41.9635 11.4088 40.7398C11.4088 39.5162 11.8994 38.3426 12.7727 37.4774C13.6459 36.6121 14.8303 36.1261 16.0653 36.1261ZM53.3179 36.1261C54.5529 36.1261 55.7373 36.6121 56.6106 37.4774C57.4838 38.3426 57.9744 39.5162 57.9744 40.7398C57.9744 41.9635 57.4838 43.137 56.6106 44.0022C55.7373 44.8675 54.5529 45.3536 53.3179 45.3536C52.0829 45.3536 50.8985 44.8675 50.0252 44.0022C49.1519 43.137 48.6613 41.9635 48.6613 40.7398C48.6613 39.5162 49.1519 38.3426 50.0252 37.4774C50.8985 36.6121 52.0829 36.1261 53.3179 36.1261Z" fill="#CE020F"/>
</svg>
