<svg width="22" height="20" viewBox="0 0 22 20" fill="none" xmlns="http://www.w3.org/2000/svg">
<path d="M0.785714 3.32045H19.6674V0.775848C19.6674 0.661054 19.6416 0.547689 19.5919 0.443929C19.5422 0.340168 19.4697 0.248599 19.3798 0.175824C19.2899 0.103048 19.1847 0.0508817 19.0719 0.0230859C18.9591 -0.00470993 18.8415 -0.00744205 18.7275 0.0150862L0.656071 2.94758C0.521506 2.97403 0.396301 3.03481 0.292915 3.12388C0.189529 3.21294 0.111567 3.32719 0.0667857 3.45524C0.29566 3.3659 0.539602 3.32016 0.785714 3.32045ZM21.2143 4.48414H0.785714C0.57733 4.48414 0.37748 4.56587 0.23013 4.71136C0.0827803 4.85685 0 5.05418 0 5.25993V19.2242C0 19.43 0.0827803 19.6273 0.23013 19.7728C0.37748 19.9183 0.57733 20 0.785714 20H21.2143C21.4227 20 21.6225 19.9183 21.7699 19.7728C21.9172 19.6273 22 19.43 22 19.2242V5.25993C22 5.05418 21.9172 4.85685 21.7699 4.71136C21.6225 4.56587 21.4227 4.48414 21.2143 4.48414ZM16.5246 13.7937C16.2138 13.7937 15.9099 13.7027 15.6515 13.5322C15.3931 13.3617 15.1917 13.1194 15.0727 12.8358C14.9538 12.5523 14.9227 12.2403 14.9833 11.9394C15.044 11.6384 15.1936 11.3619 15.4134 11.1449C15.6332 10.9279 15.9132 10.7802 16.218 10.7203C16.5228 10.6604 16.8388 10.6912 17.1259 10.8086C17.4131 10.926 17.6585 11.1249 17.8311 11.3801C18.0038 11.6352 18.096 11.9352 18.096 12.2421C18.096 12.6536 17.9304 13.0482 17.6357 13.3392C17.341 13.6302 16.9413 13.7937 16.5246 13.7937Z" fill="black"/>
</svg>
