<svg width="23" height="22" viewBox="0 0 23 22" fill="none" xmlns="http://www.w3.org/2000/svg">
<path d="M1.14537 14.7231L1.11364 14.6173C0.29545 12.2752 0.29545 9.72483 1.11364 7.38269L1.14537 7.27692C1.91729 5.14883 3.32462 3.3094 5.17674 2.00779C7.02886 0.706173 9.23627 0.005266 11.5 0C13.7644 0.00222683 15.9732 0.701941 17.8259 2.00397C19.6787 3.30599 21.0853 5.14712 21.8546 7.27692L21.8864 7.38269C22.7045 9.72483 22.7045 12.2752 21.8864 14.6173L21.8546 14.7231C21.0853 16.8529 19.6787 18.694 17.8259 19.996C15.9732 21.2981 13.7644 21.9978 11.5 22C9.23555 21.9978 7.02676 21.2981 5.17405 19.996C3.32135 18.694 1.91468 16.8529 1.14537 14.7231ZM14.1971 15.2308H8.80293C9.34492 16.9133 10.2679 18.448 11.5 19.7154C12.7321 18.448 13.6551 16.9133 14.1971 15.2308ZM14.6413 13.5385C14.9656 11.8617 14.9656 10.1383 14.6413 8.46154H8.35871C8.19768 9.29812 8.11623 10.1481 8.11544 11C8.11572 11.852 8.19718 12.702 8.35871 13.5385H14.6413ZM20.8075 11C20.8057 10.142 20.6883 9.28817 20.4585 8.46154H16.3653C16.6473 10.1421 16.6473 11.8579 16.3653 13.5385H20.4585C20.6883 12.7118 20.8057 11.858 20.8075 11ZM8.80293 6.76923H14.1971C13.6551 5.08675 12.7321 3.55205 11.5 2.28462C10.2679 3.55205 9.34492 5.08675 8.80293 6.76923ZM6.6347 8.46154H2.5415C2.076 10.1218 2.076 11.8782 2.5415 13.5385H6.6347C6.35265 11.8579 6.35265 10.1421 6.6347 8.46154ZM3.20784 6.76923H7.01546C7.52438 4.98735 8.39176 3.32814 9.56446 1.89327C8.21039 2.18564 6.93799 2.77459 5.83884 3.61772C4.73969 4.46084 3.84113 5.53717 3.20784 6.76923ZM13.4355 1.89327C14.6082 3.32814 15.4756 4.98735 15.9845 6.76923H19.7922C19.1589 5.53717 18.2603 4.46084 17.1612 3.61772C16.062 2.77459 14.7896 2.18564 13.4355 1.89327ZM19.7922 15.2308H15.9845C15.4756 17.0127 14.6082 18.6719 13.4355 20.1067C14.7904 19.8165 16.0638 19.2283 17.1632 18.385C18.2627 17.5416 19.1607 16.4642 19.7922 15.2308ZM9.56446 20.1067C8.39176 18.6719 7.52438 17.0127 7.01546 15.2308H3.20784C3.83932 16.4642 4.73733 17.5416 5.83678 18.385C6.93623 19.2283 8.20956 19.8165 9.56446 20.1067Z" fill="#808080"/>
</svg>
